<svg xmlns="http://www.w3.org/2000/svg" viewBox="0 0 400 300" fill="none" class="css-28y8rl"><path fill-rule="evenodd" clip-rule="evenodd" d="M256 177h13v2h-13v-2zM0 149c0-16.569 13.431-30 30-30h101v2H30c-15.464 0-28 12.536-28 28s12.536 28 28 28v2c-16.569 0-30-13.431-30-30z" fill="#CACED3"></path><path d="M117.832 63.206H20.229l-5.976 98.101 30.128 3.984c3.735-5.727 11.204-12.699 23.156-12.699 13.943 0 22.907 7.47 22.907 24.401v7.968c0 17.927-7.968 26.393-23.654 26.393-14.442 0-24.65-9.711-31.373-24.152L9.771 207.121c9.213 17.678 26.144 32.866 57.019 32.866 40.585 0 61.002-22.16 61.002-61.251 0-37.846-18.176-54.777-47.059-54.777-17.927 0-29.132 10.457-32.866 26.642h-3.984l3.735-56.272h70.214V63.206z" fill="url(#error-500-g_svg__paint0_linear)"></path><path d="M332.454 239.987c41.581 0 59.757-26.143 59.757-89.884s-18.176-89.885-59.757-89.885-59.757 26.144-59.757 89.885c0 63.741 18.176 89.884 59.757 89.884zm0-29.878c-16.682 0-21.911-8.964-21.911-35.357v-49.299c0-26.393 5.229-35.357 21.911-35.357 16.682 0 21.911 8.964 21.911 35.357v49.299c0 26.393-5.229 35.357-21.911 35.357z" fill="url(#error-500-g_svg__paint1_linear)"></path><path fill-rule="evenodd" clip-rule="evenodd" d="M30 179a29.867 29.867 0 01-15.214-4.139l1.016-1.722A27.871 27.871 0 0030 177h121v2H30z" fill="#CACED3"></path><path d="M199.996 239.987c41.581 0 59.757-26.143 59.757-89.884s-18.176-89.885-59.757-89.885c-41.582 0-59.758 26.144-59.758 89.885 0 63.741 18.176 89.884 59.758 89.884zm0-29.878c-16.683 0-21.911-8.964-21.911-35.357v-49.299c0-26.393 5.228-35.357 21.911-35.357 16.682 0 21.91 8.964 21.91 35.357v49.299c0 26.393-5.228 35.357-21.91 35.357z" fill="url(#error-500-g_svg__paint2_linear)"></path><path d="M141 55.5l4.5-4.5 4.5 4.5-4.5 4.5-4.5-4.5zM336 136.5l4.5-4.5 4.5 4.5-4.5 4.5-4.5-4.5zM241 255.5l6.5-6.5 6.5 6.5-6.5 6.5-6.5-6.5z" fill="#F8D33A"></path><path d="M211.2 157.943a4.215 4.215 0 105.961 5.961 4.215 4.215 0 00-5.961-5.961z" fill="#5E6673"></path><path d="M175.598 248.525l-7.101 7.1-15.495-15.495h15.495l.002.001 38.187-38.187 7.749 7.749-38.835 38.834-.002-.002z" fill="url(#error-500-g_svg__paint3_linear)"></path><path fill-rule="evenodd" clip-rule="evenodd" d="M247.54 189.254l-12.318-12.318-5.662 5.662 12.325 12.326a7.982 7.982 0 005.644 2.338h16.396v-8.008H247.54z" fill="url(#error-500-g_svg__paint4_linear)"></path><path fill-rule="evenodd" clip-rule="evenodd" d="M181.46 176.939h25.105v8.007h-25.167c-7.112 0-10.673-8.597-5.645-13.626l13.44-13.439 5.662 5.662-13.395 13.396z" fill="url(#error-500-g_svg__paint5_linear)"></path><path fill-rule="evenodd" clip-rule="evenodd" d="M227.116 176.939l-6.163 6.151-6.164-6.151h-8.224v32.875h28.66v-32.875h-8.109z" fill="url(#error-500-g_svg__paint6_linear)"></path><path d="M233.539 160.922c0-6.052-4.906-10.958-10.958-10.958v21.916c6.052 0 10.958-4.906 10.958-10.958z" fill="url(#error-500-g_svg__paint7_linear)"></path><path d="M222.58 149.964c-6.052 0-10.958 4.906-10.958 10.958v10.958h10.958v-21.916z" fill="url(#error-500-g_svg__paint8_linear)"></path><path d="M279.311 192.874h-11.802v-11.801l11.802 11.801z" fill="url(#error-500-g_svg__paint9_linear)"></path><path d="M193.752 157.973h11.801l-11.801-11.801v11.801z" fill="url(#error-500-g_svg__paint10_linear)"></path><path d="M218.365 160.924a4.215 4.215 0 108.43-.001 4.215 4.215 0 00-8.43.001z" fill="#5E6673"></path><path fill-rule="evenodd" clip-rule="evenodd" d="M233.027 131.996v10.731h-2v-10.731h2zM252.168 151.137h-10.731v2h10.731v-2zM248.775 137.04l-7.838 7.567-1.389-1.439 7.837-7.567 1.39 1.439z" fill="#FAFAFA"></path><path fill-rule="evenodd" clip-rule="evenodd" d="M274.25 179H269v-2h5.25c14.773 0 26.75 11.976 26.75 26.75s-11.977 26.75-26.75 26.75H213.5v-2h60.75c13.669 0 24.75-11.081 24.75-24.75S287.919 179 274.25 179z" fill="#CACED3"></path><path d="M131 103h60v18h-60v-18z" fill="#76808F"></path><path d="M135 112l2-2 2 2-2 2-2-2zM143 112l2-2 2 2-2 2-2-2zM186 118v-12h2v12h-2zM174 118v-12h2v12h-2zM180 118v-12h2v12h-2zM168 118v-12h2v12h-2zM162 118v-12h2v12h-2zM156 118v-12h2v12h-2z" fill="#FAFAFA"></path><path fill-rule="evenodd" clip-rule="evenodd" d="M136.5 230v19.75c0 12.565-10.186 22.75-22.75 22.75h-.5c-12.288 0-22.25-9.962-22.25-22.25S100.962 228 113.25 228h21.25v-26h2v26h74v2h-74zm-2 0v19.75c0 11.46-9.29 20.75-20.75 20.75h-.5c-11.184 0-20.25-9.066-20.25-20.25S102.066 230 113.25 230h21.25z" fill="#CACED3"></path><path d="M219.728 209.819l-14.186 14.186a11.05 11.05 0 00-3.235 7.819l.018 29.36-10.957 10.957 21.914.001-.018-40.325a.09.09 0 01.027-.064l21.934-21.934h-15.497z" fill="url(#error-500-g_svg__paint11_linear)"></path><defs><linearGradient id="error-500-g_svg__paint0_linear" x1="105.764" y1="200.953" x2="105.764" y2="80.216" gradientUnits="userSpaceOnUse"><stop stop-color="#F5F5F5"></stop><stop offset="1" stop-color="#E6E8EA"></stop></linearGradient><linearGradient id="error-500-g_svg__paint1_linear" x1="105.764" y1="200.953" x2="105.764" y2="80.216" gradientUnits="userSpaceOnUse"><stop stop-color="#F5F5F5"></stop><stop offset="1" stop-color="#E6E8EA"></stop></linearGradient><linearGradient id="error-500-g_svg__paint2_linear" x1="105.764" y1="200.953" x2="105.764" y2="80.216" gradientUnits="userSpaceOnUse"><stop stop-color="#F5F5F5"></stop><stop offset="1" stop-color="#E6E8EA"></stop></linearGradient><linearGradient id="error-500-g_svg__paint3_linear" x1="183.718" y1="201.944" x2="183.718" y2="255.625" gradientUnits="userSpaceOnUse"><stop stop-color="#F0B90B"></stop><stop offset="1" stop-color="#F8D33A"></stop></linearGradient><linearGradient id="error-500-g_svg__paint4_linear" x1="229.56" y1="187.099" x2="263.925" y2="187.099" gradientUnits="userSpaceOnUse"><stop stop-color="#F0B90B"></stop><stop offset="1" stop-color="#F8D33A"></stop></linearGradient><linearGradient id="error-500-g_svg__paint5_linear" x1="179.645" y1="167.428" x2="201.864" y2="189.647" gradientUnits="userSpaceOnUse"><stop stop-color="#F0B90B"></stop><stop offset="1" stop-color="#F8D33A"></stop></linearGradient><linearGradient id="error-500-g_svg__paint6_linear" x1="220.895" y1="209.814" x2="220.895" y2="176.939" gradientUnits="userSpaceOnUse"><stop stop-color="#F0B90B"></stop><stop offset="1" stop-color="#F8D33A"></stop></linearGradient><linearGradient id="error-500-g_svg__paint7_linear" x1="222.581" y1="149.964" x2="222.581" y2="171.88" gradientUnits="userSpaceOnUse"><stop stop-color="#F0B90B"></stop><stop offset="1" stop-color="#F8D33A"></stop></linearGradient><linearGradient id="error-500-g_svg__paint8_linear" x1="222.581" y1="149.964" x2="222.581" y2="171.88" gradientUnits="userSpaceOnUse"><stop stop-color="#F0B90B"></stop><stop offset="1" stop-color="#F8D33A"></stop></linearGradient><linearGradient id="error-500-g_svg__paint9_linear" x1="273.41" y1="192.874" x2="273.41" y2="181.073" gradientUnits="userSpaceOnUse"><stop stop-color="#F0B90B"></stop><stop offset="1" stop-color="#F8D33A"></stop></linearGradient><linearGradient id="error-500-g_svg__paint10_linear" x1="199.653" y1="157.973" x2="199.653" y2="146.172" gradientUnits="userSpaceOnUse"><stop stop-color="#F0B90B"></stop><stop offset="1" stop-color="#F8D33A"></stop></linearGradient><linearGradient id="error-500-g_svg__paint11_linear" x1="213.296" y1="209.819" x2="213.296" y2="272.142" gradientUnits="userSpaceOnUse"><stop stop-color="#F0B90B"></stop><stop offset="1" stop-color="#F8D33A"></stop></linearGradient></defs></svg>