<svg xmlns="http://www.w3.org/2000/svg" viewBox="0 0 280 480" width="280" height="480" preserveAspectRatio="xMidYMid meet" style="width: 100%; height: 100%; transform: translate3d(0px, 0px, 0px);"><defs><clipPath id="__lottie_element_2"><rect width="280" height="480" x="0" y="0"></rect></clipPath><linearGradient id="__lottie_element_27" spreadMethod="pad" gradientUnits="userSpaceOnUse" x1="-62.81800079345703" y1="-84.63500213623047" x2="-3.818000078201294" y2="-26.63800048828125"><stop offset="0%" stop-color="rgb(30,32,38)" stop-opacity="0.6800000071525574"></stop><stop offset="37%" stop-color="rgb(143,144,147)" stop-opacity="0.3400000035762787"></stop><stop offset="75%" stop-color="rgb(255,255,255)" stop-opacity="0"></stop></linearGradient><linearGradient id="__lottie_element_28" spreadMethod="pad" gradientUnits="userSpaceOnUse" x1="-10.854999542236328" y1="-9.354999542236328" x2="26.895000457763672" y2="12.494000434875488"><stop offset="0%" stop-color="rgb(0,0,0)" stop-opacity="1"></stop><stop offset="50%" stop-color="rgb(0,0,0)" stop-opacity="0.5"></stop><stop offset="100%" stop-color="rgb(0,0,0)" stop-opacity="0"></stop></linearGradient><linearGradient id="__lottie_element_29" spreadMethod="pad" gradientUnits="userSpaceOnUse" x1="-14.479000091552734" y1="-8.230999946594238" x2="14.590999603271484" y2="8.024999618530273"><stop offset="0%" stop-color="rgb(0,0,0)" stop-opacity="1"></stop><stop offset="50%" stop-color="rgb(0,0,0)" stop-opacity="0.5"></stop><stop offset="100%" stop-color="rgb(0,0,0)" stop-opacity="0"></stop></linearGradient><linearGradient id="__lottie_element_30" spreadMethod="pad" gradientUnits="userSpaceOnUse" x1="-83.4749984741211" y1="-82.76799774169922" x2="-29.847000122070312" y2="-27.56999969482422"><stop offset="0%" stop-color="rgb(30,32,38)" stop-opacity="0.6800000071525574"></stop><stop offset="37%" stop-color="rgb(143,144,147)" stop-opacity="0.3400000035762787"></stop><stop offset="75%" stop-color="rgb(255,255,255)" stop-opacity="0"></stop></linearGradient><linearGradient id="__lottie_element_31" spreadMethod="pad" gradientUnits="userSpaceOnUse" x1="7.159999847412109" y1="0.013000000268220901" x2="-7.067999839782715" y2="-0.03099999949336052"><stop offset="0%" stop-color="rgb(240,185,11)"></stop><stop offset="50%" stop-color="rgb(244,198,34)"></stop><stop offset="100%" stop-color="rgb(248,211,58)"></stop></linearGradient><linearGradient id="__lottie_element_32" spreadMethod="pad" gradientUnits="userSpaceOnUse" x1="-21.479999542236328" y1="-20.343000411987305" x2="22.364999771118164" y2="20.874000549316406"><stop offset="0%" stop-color="rgb(0,0,0)" stop-opacity="1"></stop><stop offset="50%" stop-color="rgb(0,0,0)" stop-opacity="0.5"></stop><stop offset="100%" stop-color="rgb(0,0,0)" stop-opacity="0"></stop></linearGradient><linearGradient id="__lottie_element_33" spreadMethod="pad" gradientUnits="userSpaceOnUse" x1="20.031999588012695" y1="18.24799919128418" x2="-18.750999450683594" y2="-18.07699966430664"><stop offset="0%" stop-color="rgb(0,0,0)" stop-opacity="0.6499999761581421"></stop><stop offset="50%" stop-color="rgb(0,0,0)" stop-opacity="0.32499998807907104"></stop><stop offset="100%" stop-color="rgb(0,0,0)" stop-opacity="0"></stop></linearGradient><linearGradient id="__lottie_element_34" spreadMethod="pad" gradientUnits="userSpaceOnUse" x1="0" y1="0" x2="26.621000289916992" y2="25.937000274658203"><stop offset="0%" stop-color="rgb(255,255,255)"></stop><stop offset="100%" stop-color="rgb(0,0,0)"></stop></linearGradient><linearGradient id="__lottie_element_35" spreadMethod="pad" gradientUnits="userSpaceOnUse" x1="-42.25199890136719" y1="-42.20899963378906" x2="26.621000289916992" y2="25.937000274658203"><stop offset="0%" stop-color="rgb(183,189,198)" stop-opacity="1"></stop><stop offset="28%" stop-color="rgb(183,189,198)" stop-opacity="0.5"></stop><stop offset="56%" stop-color="rgb(183,189,198)" stop-opacity="0"></stop></linearGradient><linearGradient id="__lottie_element_36" spreadMethod="pad" gradientUnits="userSpaceOnUse" x1="-87.60299682617188" y1="-82.26799774169922" x2="31.635000228881836" y2="36.141998291015625"><stop offset="0%" stop-color="rgb(30,32,38)" stop-opacity="0.6800000071525574"></stop><stop offset="37%" stop-color="rgb(143,144,147)" stop-opacity="0.3400000035762787"></stop><stop offset="75%" stop-color="rgb(255,255,255)" stop-opacity="0"></stop></linearGradient><linearGradient id="__lottie_element_37" spreadMethod="pad" gradientUnits="userSpaceOnUse" x1="6.316999912261963" y1="-0.15600000321865082" x2="-6.750999927520752" y2="-0.25200000405311584"><stop offset="0%" stop-color="rgb(240,185,11)"></stop><stop offset="50%" stop-color="rgb(244,198,34)"></stop><stop offset="100%" stop-color="rgb(248,211,58)"></stop></linearGradient><linearGradient id="__lottie_element_38" spreadMethod="pad" gradientUnits="userSpaceOnUse" x1="15.609999656677246" y1="7.853000164031982" x2="-11.729000091552734" y2="-14.687999725341797"><stop offset="0%" stop-color="rgb(0,0,0)" stop-opacity="0.6499999761581421"></stop><stop offset="50%" stop-color="rgb(0,0,0)" stop-opacity="0.32499998807907104"></stop><stop offset="100%" stop-color="rgb(0,0,0)" stop-opacity="0"></stop></linearGradient><linearGradient id="__lottie_element_42" spreadMethod="pad" gradientUnits="userSpaceOnUse" x1="-0.8320000171661377" y1="394.1499938964844" x2="-0.8320000171661377" y2="134.11599731445312"><stop offset="0%" stop-color="rgb(118,128,143)"></stop><stop offset="50%" stop-color="rgb(106,115,129)"></stop><stop offset="100%" stop-color="rgb(94,102,115)"></stop></linearGradient><linearGradient id="__lottie_element_43" spreadMethod="pad" gradientUnits="userSpaceOnUse" x1="65.18399810791016" y1="366.13299560546875" x2="-95.05599975585938" y2="205.89300537109375"><stop offset="0%" stop-color="rgb(71,77,87)" stop-opacity="1"></stop><stop offset="50%" stop-color="rgb(71,77,87)" stop-opacity="0.5"></stop><stop offset="100%" stop-color="rgb(71,77,87)" stop-opacity="0"></stop></linearGradient><linearGradient id="__lottie_element_59" spreadMethod="pad" gradientUnits="userSpaceOnUse" x1="-0.32899999618530273" y1="-377.1600036621094" x2="-0.32899999618530273" y2="-437.3689880371094"><stop offset="0%" stop-color="rgb(120,130,145)"></stop><stop offset="50%" stop-color="rgb(74,81,91)"></stop><stop offset="100%" stop-color="rgb(29,32,35)"></stop></linearGradient><linearGradient id="__lottie_element_60" spreadMethod="pad" gradientUnits="userSpaceOnUse" x1="15.074000358581543" y1="-383.56298828125" x2="-22.02899932861328" y2="-420.6650085449219"><stop offset="0%" stop-color="rgb(71,77,87)" stop-opacity="1"></stop><stop offset="50%" stop-color="rgb(71,77,87)" stop-opacity="0.5"></stop><stop offset="100%" stop-color="rgb(71,77,87)" stop-opacity="0"></stop></linearGradient><linearGradient id="__lottie_element_61" spreadMethod="pad" gradientUnits="userSpaceOnUse" x1="29.57900047302246" y1="-339.0060119628906" x2="41.314998626708984" y2="-393.6000061035156"><stop offset="0%" stop-color="rgb(255,255,255)" stop-opacity="1"></stop><stop offset="37%" stop-color="rgb(255,255,255)" stop-opacity="0.5"></stop><stop offset="75%" stop-color="rgb(255,255,255)" stop-opacity="0"></stop></linearGradient><linearGradient id="__lottie_element_62" spreadMethod="pad" gradientUnits="userSpaceOnUse" x1="-407.9830017089844" y1="657.0579833984375" x2="-368.8269958496094" y2="709.823974609375"><stop offset="0%" stop-color="rgb(30,32,38)" stop-opacity="0.6800000071525574"></stop><stop offset="37%" stop-color="rgb(143,144,147)" stop-opacity="0.3400000035762787"></stop><stop offset="75%" stop-color="rgb(255,255,255)" stop-opacity="0"></stop></linearGradient></defs><g clip-path="url(#__lottie_element_2)"><g transform="matrix(1,0,0,1,140,240)" opacity="1" style="display: block;"><g opacity="1" transform="matrix(1,0,0,1,0,0)"><path fill="rgb(0,0,0)" fill-opacity="1" d=" M140,-240 C140,-240 140,240 140,240 C140,240 -140,240 -140,240 C-140,240 -140,-240 -140,-240 C-140,-240 140,-240 140,-240z"></path></g></g><g transform="matrix(1,0,0,1,0,0)" opacity="0.12" style="display: block;"><g opacity="0.2" transform="matrix(1,0,0,1,100.30000305175781,395.20001220703125)"><path fill="rgb(230,232,234)" fill-opacity="1" d=" M0,-2.553999900817871 C0,-2.553999900817871 2.553999900817871,0 2.553999900817871,0 C2.553999900817871,0 0,2.553999900817871 0,2.553999900817871 C0,2.553999900817871 -2.553999900817871,0 -2.553999900817871,0 C-2.553999900817871,0 0,-2.553999900817871 0,-2.553999900817871z"></path></g><g opacity="1" transform="matrix(0.7071067690849304,0.7071067690849304,-0.7071067690849304,0.7071067690849304,208.3000030517578,178.8000030517578)"><path fill="rgb(230,232,234)" fill-opacity="1" d=" M0,-2.996000051498413 C0,-2.996000051498413 2.996000051498413,-0.0010000000474974513 2.996000051498413,-0.0010000000474974513 C2.996000051498413,-0.0010000000474974513 0,2.996999979019165 0,2.996999979019165 C0,2.996999979019165 -2.996999979019165,-0.0010000000474974513 -2.996999979019165,-0.0010000000474974513 C-2.996999979019165,-0.0010000000474974513 0,-2.996000051498413 0,-2.996000051498413z"></path></g><g opacity="0.3" transform="matrix(1,0,0,1,247.11099243164062,85.80899810791016)"><path fill="rgb(230,232,234)" fill-opacity="1" d=" M0,-4.085999965667725 C0,-4.085999965667725 4.086999893188477,0 4.086999893188477,0 C4.086999893188477,0 0,4.085999965667725 0,4.085999965667725 C0,4.085999965667725 -4.086999893188477,0 -4.086999893188477,0 C-4.086999893188477,0 0,-4.085999965667725 0,-4.085999965667725z"></path></g><g opacity="0.2" transform="matrix(1,0,0,1,21.937000274658203,179.88699340820312)"><path fill="rgb(202,206,211)" fill-opacity="1" d=" M0,-3.744999885559082 C0,-3.744999885559082 3.746000051498413,-0.0010000000474974513 3.746000051498413,-0.0010000000474974513 C3.746000051498413,-0.0010000000474974513 0,3.744999885559082 0,3.744999885559082 C0,3.744999885559082 -3.746000051498413,-0.0010000000474974513 -3.746000051498413,-0.0010000000474974513 C-3.746000051498413,-0.0010000000474974513 0,-3.744999885559082 0,-3.744999885559082z"></path></g><g opacity="0.2" transform="matrix(1,0,0,1,131.66000366210938,127.60199737548828)"><path fill="rgb(202,206,211)" fill-opacity="1" d=" M2.6480000019073486,-2.6480000019073486 C2.6480000019073486,-2.6480000019073486 2.6480000019073486,2.6480000019073486 2.6480000019073486,2.6480000019073486 C2.6480000019073486,2.6480000019073486 -2.6480000019073486,2.6480000019073486 -2.6480000019073486,2.6480000019073486 C-2.6480000019073486,2.6480000019073486 -2.6480000019073486,-2.6480000019073486 -2.6480000019073486,-2.6480000019073486 C-2.6480000019073486,-2.6480000019073486 2.6480000019073486,-2.6480000019073486 2.6480000019073486,-2.6480000019073486z"></path></g><g opacity="0.3" transform="matrix(1,0,0,1,111.13200378417969,59.64699935913086)"><path fill="rgb(118,128,143)" fill-opacity="1" d=" M-170.42300415039062,29.31399917602539 C-170.42300415039062,29.31399917602539 -25.496000289916992,29.31399917602539 -25.496000289916992,29.31399917602539 C-6.764999866485596,29.31399917602539 11.199000358581543,36.77199935913086 24.44300079345703,50.04800033569336 C24.44300079345703,50.04800033569336 59.22700119018555,84.88300323486328 59.22700119018555,84.88300323486328 C59.22700119018555,84.88300323486328 170.42300415039062,196.1999969482422 170.42300415039062,196.1999969482422 C170.42300415039062,196.1999969482422 170.42300415039062,165.7429962158203 170.42300415039062,165.7429962158203 C170.42300415039062,165.7429962158203 170.42300415039062,69.64299774169922 170.42300415039062,69.64299774169922 C170.42300415039062,69.64299774169922 109.08799743652344,8.08899974822998 109.08799743652344,8.08899974822998 C103.33699798583984,2.318000078201294 95.5260009765625,-0.9259999990463257 87.37899780273438,-0.9259999990463257 C87.37899780273438,-0.9259999990463257 37.25699996948242,-0.9259999990463257 37.25699996948242,-0.9259999990463257 C29.062000274658203,-0.9259999990463257 21.202999114990234,-4.189000129699707 15.407999992370605,-9.996999740600586 C15.407999992370605,-9.996999740600586 -170.42300415039062,-196.1999969482422 -170.42300415039062,-196.1999969482422 C-170.42300415039062,-196.1999969482422 -170.42300415039062,29.31399917602539 -170.42300415039062,29.31399917602539z"></path></g><g opacity="1" transform="matrix(1,0,0,1,232.3000030517578,154.8000030517578)"><path fill="rgb(255,255,255)" fill-opacity="1" d=" M-5.302999973297119,0 C-5.302999973297119,0 0,-5.302999973297119 0,-5.302999973297119 C0,-5.302999973297119 5.302999973297119,0 5.302999973297119,0 C5.302999973297119,0 0,5.302999973297119 0,5.302999973297119 C0,5.302999973297119 -5.302999973297119,0 -5.302999973297119,0z"></path></g><g opacity="1" transform="matrix(1,0,0,1,83.0999984741211,27.299999237060547)"><path fill="rgb(255,255,255)" fill-opacity="1" d=" M-5.302999973297119,0 C-5.302999973297119,0 0,-5.302999973297119 0,-5.302999973297119 C0,-5.302999973297119 5.302999973297119,0 5.302999973297119,0 C5.302999973297119,0 0,5.302999973297119 0,5.302999973297119 C0,5.302999973297119 -5.302999973297119,0 -5.302999973297119,0z"></path></g></g><g transform="matrix(0.9987749457359314,0,0,0.9987749457359314,188.62899780273438,67.90899658203125)" opacity="0.08" style="display: block;"><g opacity="1" transform="matrix(1,0,0,1,0,0)"><path fill="rgb(94,102,115)" fill-opacity="1" d=" M0,-49.689998626708984 C27.44300079345703,-49.689998626708984 49.689998626708984,-27.44300079345703 49.689998626708984,0 C49.689998626708984,27.44300079345703 27.44300079345703,49.689998626708984 0,49.689998626708984 C-27.44300079345703,49.689998626708984 -49.689998626708984,27.44300079345703 -49.689998626708984,0 C-49.689998626708984,-27.44300079345703 -27.44300079345703,-49.689998626708984 0,-49.689998626708984z"></path></g></g><g transform="matrix(1,0,0,1,0,0)" opacity="0.08" style="display: block;"><g opacity="1" transform="matrix(1,0,0,1,188.6230010986328,67.90299987792969)"><path fill="rgb(59,61,63)" fill-opacity="1" d=" M0,-30.104999542236328 C16.62700080871582,-30.104999542236328 30.104999542236328,-16.62700080871582 30.104999542236328,0 C30.104999542236328,16.62700080871582 16.62700080871582,30.104999542236328 0,30.104999542236328 C-16.62700080871582,30.104999542236328 -30.104999542236328,16.62700080871582 -30.104999542236328,0 C-30.104999542236328,-16.62700080871582 -16.62700080871582,-30.104999542236328 0,-30.104999542236328z"></path></g><g opacity="1" transform="matrix(1,0,0,1,188.82899475097656,67.83999633789062)"><path fill="url(#__lottie_element_59)" fill-opacity="1" d=" M0,-30.104999542236328 C16.625999450683594,-30.104999542236328 30.104999542236328,-16.625999450683594 30.104999542236328,0 C30.104999542236328,16.625999450683594 16.625999450683594,30.104000091552734 0,30.104000091552734 C-16.625999450683594,30.104000091552734 -30.104999542236328,16.625999450683594 -30.104999542236328,0 C-30.104999542236328,-16.625999450683594 -16.625999450683594,-30.104999542236328 0,-30.104999542236328z"></path></g><g opacity="1" transform="matrix(1,0,0,1,184.42599487304688,63.4370002746582)"><path fill="url(#__lottie_element_60)" fill-opacity="1" d=" M25.665000915527344,-16.857999801635742 C13.92199993133545,-5.116000175476074 -16.857999801635742,25.663999557495117 -16.857999801635742,25.663999557495117 C-28.600000381469727,13.92199993133545 -28.600000381469727,-5.116000175476074 -16.857999801635742,-16.857999801635742 C-5.114999771118164,-28.600000381469727 13.92199993133545,-28.600000381469727 25.665000915527344,-16.857999801635742z"></path></g><g opacity="1" transform="matrix(1,0,0,1,194.37600708007812,65.6760025024414)"><path fill="rgb(71,77,87)" fill-opacity="1" d=" M-3.4509999752044678,0 C-3.4509999752044678,0 0,-3.450000047683716 0,-3.450000047683716 C0,-3.450000047683716 3.4509999752044678,0 3.4509999752044678,0 C3.4509999752044678,0 0,3.450000047683716 0,3.450000047683716 C0,3.450000047683716 -3.4509999752044678,0 -3.4509999752044678,0z"></path></g><g opacity="1" transform="matrix(1,0,0,1,201.2100067138672,65.6760025024414)"><path fill="rgb(71,77,87)" fill-opacity="1" d=" M-3.381999969482422,0 C-3.381999969482422,0 0,-3.450000047683716 0,-3.450000047683716 C0,-3.450000047683716 3.381999969482422,0 3.381999969482422,0 C3.381999969482422,0 0,3.450000047683716 0,3.450000047683716 C0,3.450000047683716 -3.381999969482422,0 -3.381999969482422,0z"></path></g><g opacity="1" transform="matrix(1,0,0,1,194.37600708007812,72.50800323486328)"><path fill="rgb(71,77,87)" fill-opacity="1" d=" M-3.4509999752044678,0 C-3.4509999752044678,0 0,-3.381999969482422 0,-3.381999969482422 C0,-3.381999969482422 3.4509999752044678,0 3.4509999752044678,0 C3.4509999752044678,0 0,3.381999969482422 0,3.381999969482422 C0,3.381999969482422 -3.4509999752044678,0 -3.4509999752044678,0z"></path></g><g opacity="1" transform="matrix(1,0,0,1,190.99400329589844,62.292999267578125)"><path fill="rgb(118,128,143)" fill-opacity="1" d=" M-3.450000047683716,0 C-3.450000047683716,0 0,-3.450000047683716 0,-3.450000047683716 C0,-3.450000047683716 3.450000047683716,0 3.450000047683716,0 C3.450000047683716,0 0,3.450000047683716 0,3.450000047683716 C0,3.450000047683716 -3.450000047683716,0 -3.450000047683716,0z"></path></g><g opacity="1" transform="matrix(1,0,0,1,190.99400329589844,55.459999084472656)"><path fill="rgb(118,128,143)" fill-opacity="1" d=" M-3.450000047683716,0 C-3.450000047683716,0 0,-3.382999897003174 0,-3.382999897003174 C0,-3.382999897003174 3.450000047683716,0 3.450000047683716,0 C3.450000047683716,0 0,3.382999897003174 0,3.382999897003174 C0,3.382999897003174 -3.450000047683716,0 -3.450000047683716,0z"></path></g><g opacity="1" transform="matrix(1,0,0,1,184.22900390625,62.292999267578125)"><path fill="rgb(118,128,143)" fill-opacity="1" d=" M-3.450000047683716,0 C-3.450000047683716,0 0,-3.450000047683716 0,-3.450000047683716 C0,-3.450000047683716 3.450000047683716,0 3.450000047683716,0 C3.450000047683716,0 0,3.450000047683716 0,3.450000047683716 C0,3.450000047683716 -3.450000047683716,0 -3.450000047683716,0z"></path></g><g opacity="1" transform="matrix(1,0,0,1,170.69900512695312,75.89099884033203)"><path fill="rgb(118,128,143)" fill-opacity="1" d=" M-3.450000047683716,0 C-3.450000047683716,0 0,-3.381999969482422 0,-3.381999969482422 C0,-3.381999969482422 3.450000047683716,0 3.450000047683716,0 C3.450000047683716,0 0,3.381999969482422 0,3.381999969482422 C0,3.381999969482422 -3.450000047683716,0 -3.450000047683716,0z"></path></g><g opacity="1" transform="matrix(1,0,0,1,190.99400329589844,48.69499969482422)"><path fill="rgb(118,128,143)" fill-opacity="1" d=" M-1.9620000123977661,0 C-1.9620000123977661,0 0,-1.8940000534057617 0,-1.8940000534057617 C0,-1.8940000534057617 1.9620000123977661,0 1.9620000123977661,0 C1.9620000123977661,0 0,1.8940000534057617 0,1.8940000534057617 C0,1.8940000534057617 -1.9620000123977661,0 -1.9620000123977661,0z"></path></g><g opacity="1" transform="matrix(1,0,0,1,184.16099548339844,55.459999084472656)"><path fill="rgb(118,128,143)" fill-opacity="1" d=" M-1.8949999809265137,0 C-1.8949999809265137,0 -0.0010000000474974513,-1.8940000534057617 -0.0010000000474974513,-1.8940000534057617 C-0.0010000000474974513,-1.8940000534057617 1.8949999809265137,0 1.8949999809265137,0 C1.8949999809265137,0 -0.0010000000474974513,1.8940000534057617 -0.0010000000474974513,1.8940000534057617 C-0.0010000000474974513,1.8940000534057617 -1.8949999809265137,0 -1.8949999809265137,0z"></path></g><g opacity="1" transform="matrix(1,0,0,1,170.56399536132812,69.1259994506836)"><path fill="rgb(118,128,143)" fill-opacity="1" d=" M-1.9620000123977661,0 C-1.9620000123977661,0 0,-1.8940000534057617 0,-1.8940000534057617 C0,-1.8940000534057617 1.9620000123977661,0 1.9620000123977661,0 C1.9620000123977661,0 0,1.8940000534057617 0,1.8940000534057617 C0,1.8940000534057617 -1.9620000123977661,0 -1.9620000123977661,0z"></path></g><g opacity="1" transform="matrix(1,0,0,1,199.07200622558594,78.08300018310547)"><path fill="rgb(118,128,143)" fill-opacity="1" d=" M-19.825000762939453,18.266000747680664 C-16.81599998474121,19.277000427246094 -13.593000411987305,19.825000762939453 -10.243000030517578,19.825000762939453 C6.36299991607666,19.825000762939453 19.825000762939453,6.36299991607666 19.825000762939453,-10.243000030517578 C19.825000762939453,-13.593999862670898 19.277000427246094,-16.815000534057617 18.266000747680664,-19.825000762939453 C18.266000747680664,-19.825000762939453 -19.825000762939453,18.266000747680664 -19.825000762939453,18.266000747680664z"></path></g><g opacity="1" transform="matrix(1,0,0,1,194.44400024414062,79.27300262451172)"><path fill="rgb(71,77,87)" fill-opacity="1" d=" M1.8940000534057617,0 C1.8940000534057617,0 0,1.8940000534057617 0,1.8940000534057617 C0,1.8940000534057617 -1.8940000534057617,0 -1.8940000534057617,0 C-1.8940000534057617,0 0,-1.8940000534057617 0,-1.8940000534057617 C0,-1.8940000534057617 1.8940000534057617,0 1.8940000534057617,0z"></path></g><g opacity="1" transform="matrix(1,0,0,1,201.2100067138672,72.50800323486328)"><path fill="rgb(71,77,87)" fill-opacity="1" d=" M1.8949999809265137,0 C1.8949999809265137,0 -0.0010000000474974513,1.8940000534057617 -0.0010000000474974513,1.8940000534057617 C-0.0010000000474974513,1.8940000534057617 -1.8949999809265137,0 -1.8949999809265137,0 C-1.8949999809265137,0 -0.0010000000474974513,-1.8940000534057617 -0.0010000000474974513,-1.8940000534057617 C-0.0010000000474974513,-1.8940000534057617 1.8949999809265137,0 1.8949999809265137,0z"></path></g><g opacity="1" transform="matrix(1,0,0,1,207.97500610351562,65.6760025024414)"><path fill="rgb(71,77,87)" fill-opacity="1" d=" M1.8949999809265137,0 C1.8949999809265137,0 -0.0010000000474974513,1.9620000123977661 -0.0010000000474974513,1.9620000123977661 C-0.0010000000474974513,1.9620000123977661 -1.8949999809265137,0 -1.8949999809265137,0 C-1.8949999809265137,0 -0.0010000000474974513,-1.9620000123977661 -0.0010000000474974513,-1.9620000123977661 C-0.0010000000474974513,-1.9620000123977661 1.8949999809265137,0 1.8949999809265137,0z"></path></g><g opacity="1" transform="matrix(1,0,0,1,180.7790069580078,92.93900299072266)"><path fill="rgb(71,77,87)" fill-opacity="1" d=" M1.8949999809265137,0 C1.8949999809265137,0 0.0010000000474974513,1.8940000534057617 0.0010000000474974513,1.8940000534057617 C0.0010000000474974513,1.8940000534057617 -1.8949999809265137,0 -1.8949999809265137,0 C-1.8949999809265137,0 0.0010000000474974513,-1.8940000534057617 0.0010000000474974513,-1.8940000534057617 C0.0010000000474974513,-1.8940000534057617 1.8949999809265137,0 1.8949999809265137,0z"></path></g><g opacity="1" transform="matrix(1,0,0,1,201.2100067138672,86.10600280761719)"><path fill="rgb(71,77,87)" fill-opacity="1" d=" M1.8949999809265137,0 C1.8949999809265137,0 -0.0010000000474974513,1.9620000123977661 -0.0010000000474974513,1.9620000123977661 C-0.0010000000474974513,1.9620000123977661 -1.8949999809265137,0 -1.8949999809265137,0 C-1.8949999809265137,0 -0.0010000000474974513,-1.9620000123977661 -0.0010000000474974513,-1.9620000123977661 C-0.0010000000474974513,-1.9620000123977661 1.8949999809265137,0 1.8949999809265137,0z"></path></g><g opacity="1" transform="matrix(1,0,0,1,177.39700317382812,55.459999084472656)"><path fill="rgb(118,128,143)" fill-opacity="1" d=" M-3.381999969482422,0 C-3.381999969482422,0 -0.0010000000474974513,-3.382999897003174 -0.0010000000474974513,-3.382999897003174 C-0.0010000000474974513,-3.382999897003174 3.381999969482422,0 3.381999969482422,0 C3.381999969482422,0 -0.0010000000474974513,3.382999897003174 -0.0010000000474974513,3.382999897003174 C-0.0010000000474974513,3.382999897003174 -3.381999969482422,0 -3.381999969482422,0z"></path></g><g opacity="1" transform="matrix(1,0,0,1,201.2100067138672,58.9109992980957)"><path fill="rgb(71,77,87)" fill-opacity="1" d=" M0.6759999990463257,0 C0.6759999990463257,0 -0.0010000000474974513,0.7440000176429749 -0.0010000000474974513,0.7440000176429749 C-0.0010000000474974513,0.7440000176429749 -0.6759999990463257,0 -0.6759999990463257,0 C-0.6759999990463257,0 -0.0010000000474974513,-0.7440000176429749 -0.0010000000474974513,-0.7440000176429749 C-0.0010000000474974513,-0.7440000176429749 0.6759999990463257,0 0.6759999990463257,0z"></path></g><g opacity="1" transform="matrix(1,0,0,1,208.04200744628906,52.077999114990234)"><path fill="rgb(71,77,87)" fill-opacity="1" d=" M0,0.6759999990463257 C0,0.6759999990463257 -0.7440000176429749,0 -0.7440000176429749,0 C-0.7440000176429749,0 0,-0.6759999990463257 0,-0.6759999990463257 C0,-0.6759999990463257 0.7440000176429749,0 0.7440000176429749,0 C0.7440000176429749,0 0,0.6759999990463257 0,0.6759999990463257z"></path></g><g opacity="1" transform="matrix(1,0,0,1,208.04200744628906,58.9109992980957)"><path fill="rgb(71,77,87)" fill-opacity="1" d=" M0.7440000176429749,0 C0.7440000176429749,0 0,0.7440000176429749 0,0.7440000176429749 C0,0.7440000176429749 -0.7440000176429749,0 -0.7440000176429749,0 C-0.7440000176429749,0 0,-0.7440000176429749 0,-0.7440000176429749 C0,-0.7440000176429749 0.7440000176429749,0 0.7440000176429749,0z"></path></g><g opacity="1" transform="matrix(1,0,0,1,177.46400451660156,62.292999267578125)"><path fill="rgb(118,128,143)" fill-opacity="1" d=" M0.7440000176429749,0 C0.7440000176429749,0 0,0.7440000176429749 0,0.7440000176429749 C0,0.7440000176429749 -0.7440000176429749,0 -0.7440000176429749,0 C-0.7440000176429749,0 0,-0.7440000176429749 0,-0.7440000176429749 C0,-0.7440000176429749 0.7440000176429749,0 0.7440000176429749,0z"></path></g><g opacity="1" transform="matrix(1,0,0,1,184.16099548339844,69.05799865722656)"><path fill="rgb(174,180,188)" fill-opacity="1" d=" M0.6759999990463257,0 C0.6759999990463257,0 -0.0010000000474974513,0.7440000176429749 -0.0010000000474974513,0.7440000176429749 C-0.0010000000474974513,0.7440000176429749 -0.6759999990463257,0 -0.6759999990463257,0 C-0.6759999990463257,0 -0.0010000000474974513,-0.7440000176429749 -0.0010000000474974513,-0.7440000176429749 C-0.0010000000474974513,-0.7440000176429749 0.6759999990463257,0 0.6759999990463257,0z"></path></g><g opacity="1" transform="matrix(1,0,0,1,165.6929931640625,69.05799865722656)"><path fill="rgb(174,180,188)" fill-opacity="1" d=" M0.7440000176429749,0 C0.7440000176429749,0 -0.0010000000474974513,0.7440000176429749 -0.0010000000474974513,0.7440000176429749 C-0.0010000000474974513,0.7440000176429749 -0.7450000047683716,0 -0.7450000047683716,0 C-0.7450000047683716,0 -0.0010000000474974513,-0.7440000176429749 -0.0010000000474974513,-0.7440000176429749 C-0.0010000000474974513,-0.7440000176429749 0.7440000176429749,0 0.7440000176429749,0z"></path></g><g opacity="1" transform="matrix(1,0,0,1,170.56399536132812,55.459999084472656)"><path fill="rgb(174,180,188)" fill-opacity="1" d=" M0.7450000047683716,0 C0.7450000047683716,0 0,0.6759999990463257 0,0.6759999990463257 C0,0.6759999990463257 -0.7450000047683716,0 -0.7450000047683716,0 C-0.7450000047683716,0 0,-0.6759999990463257 0,-0.6759999990463257 C0,-0.6759999990463257 0.7450000047683716,0 0.7450000047683716,0z"></path></g><g opacity="1" transform="matrix(1,0,0,1,190.99400329589844,41.862998962402344)"><path fill="rgb(118,128,143)" fill-opacity="1" d=" M0.7440000176429749,0 C0.7440000176429749,0 0,0.7440000176429749 0,0.7440000176429749 C0,0.7440000176429749 -0.7440000176429749,0 -0.7440000176429749,0 C-0.7440000176429749,0 0,-0.7440000176429749 0,-0.7440000176429749 C0,-0.7440000176429749 0.7440000176429749,0 0.7440000176429749,0z"></path></g><g opacity="1" transform="matrix(1,0,0,1,194.3769989013672,44.569000244140625)"><path fill="rgb(118,128,143)" fill-opacity="1" d=" M0.7440000176429749,0 C0.7440000176429749,0 -0.0010000000474974513,0.7440000176429749 -0.0010000000474974513,0.7440000176429749 C-0.0010000000474974513,0.7440000176429749 -0.7450000047683716,0 -0.7450000047683716,0 C-0.7450000047683716,0 -0.0010000000474974513,-0.7440000176429749 -0.0010000000474974513,-0.7440000176429749 C-0.0010000000474974513,-0.7440000176429749 0.7440000176429749,0 0.7440000176429749,0z"></path></g><g opacity="1" transform="matrix(1,0,0,1,197.75900268554688,69.05799865722656)"><path fill="rgb(71,77,87)" fill-opacity="1" d=" M0.7440000176429749,0 C0.7440000176429749,0 0,0.7440000176429749 0,0.7440000176429749 C0,0.7440000176429749 -0.7440000176429749,0 -0.7440000176429749,0 C-0.7440000176429749,0 0,-0.7440000176429749 0,-0.7440000176429749 C0,-0.7440000176429749 0.7440000176429749,0 0.7440000176429749,0z"></path></g><g opacity="1" transform="matrix(1,0,0,1,208.04200744628906,72.50800323486328)"><path fill="rgb(71,77,87)" fill-opacity="1" d=" M0.7440000176429749,0 C0.7440000176429749,0 0,0.6769999861717224 0,0.6769999861717224 C0,0.6769999861717224 -0.7440000176429749,0 -0.7440000176429749,0 C-0.7440000176429749,0 0,-0.6769999861717224 0,-0.6769999861717224 C0,-0.6769999861717224 0.7440000176429749,0 0.7440000176429749,0z"></path></g><g opacity="1" transform="matrix(1,0,0,1,213.31900024414062,72.50800323486328)"><path fill="rgb(174,180,188)" fill-opacity="1" d=" M0.7440000176429749,0 C0.7440000176429749,0 0,0.6769999861717224 0,0.6769999861717224 C0,0.6769999861717224 -0.7440000176429749,0 -0.7440000176429749,0 C-0.7440000176429749,0 0,-0.6769999861717224 0,-0.6769999861717224 C0,-0.6769999861717224 0.7440000176429749,0 0.7440000176429749,0z"></path></g><g opacity="1" transform="matrix(1,0,0,1,205.33599853515625,61.54899978637695)"><path fill="rgb(174,180,188)" fill-opacity="1" d=" M0.7440000176429749,0 C0.7440000176429749,0 0,0.6759999990463257 0,0.6759999990463257 C0,0.6759999990463257 -0.7440000176429749,0 -0.7440000176429749,0 C-0.7440000176429749,0 0,-0.6759999990463257 0,-0.6759999990463257 C0,-0.6759999990463257 0.7440000176429749,0 0.7440000176429749,0z"></path></g><g opacity="1" transform="matrix(1,0,0,1,205.33599853515625,55.459999084472656)"><path fill="rgb(174,180,188)" fill-opacity="1" d=" M0.7440000176429749,0 C0.7440000176429749,0 0,0.6759999990463257 0,0.6759999990463257 C0,0.6759999990463257 -0.7440000176429749,0 -0.7440000176429749,0 C-0.7440000176429749,0 0,-0.6759999990463257 0,-0.6759999990463257 C0,-0.6759999990463257 0.7440000176429749,0 0.7440000176429749,0z"></path></g><g opacity="1" transform="matrix(1,0,0,1,210.67999267578125,55.459999084472656)"><path fill="rgb(174,180,188)" fill-opacity="1" d=" M0.6759999990463257,0 C0.6759999990463257,0 -0.0010000000474974513,0.6759999990463257 -0.0010000000474974513,0.6759999990463257 C-0.0010000000474974513,0.6759999990463257 -0.6759999990463257,0 -0.6759999990463257,0 C-0.6759999990463257,0 -0.0010000000474974513,-0.6759999990463257 -0.0010000000474974513,-0.6759999990463257 C-0.0010000000474974513,-0.6759999990463257 0.6759999990463257,0 0.6759999990463257,0z"></path></g><g opacity="1" transform="matrix(1,0,0,1,194.3769989013672,58.9109992980957)"><path fill="rgb(174,180,188)" fill-opacity="1" d=" M0.7440000176429749,0 C0.7440000176429749,0 -0.0010000000474974513,0.7440000176429749 -0.0010000000474974513,0.7440000176429749 C-0.0010000000474974513,0.7440000176429749 -0.7450000047683716,0 -0.7450000047683716,0 C-0.7450000047683716,0 -0.0010000000474974513,-0.7440000176429749 -0.0010000000474974513,-0.7440000176429749 C-0.0010000000474974513,-0.7440000176429749 0.7440000176429749,0 0.7440000176429749,0z"></path></g><g opacity="1" transform="matrix(1,0,0,1,194.3769989013672,52.077999114990234)"><path fill="rgb(174,180,188)" fill-opacity="1" d=" M0.7440000176429749,0 C0.7440000176429749,0 -0.0010000000474974513,0.6759999990463257 -0.0010000000474974513,0.6759999990463257 C-0.0010000000474974513,0.6759999990463257 -0.7450000047683716,0 -0.7450000047683716,0 C-0.7450000047683716,0 -0.0010000000474974513,-0.6759999990463257 -0.0010000000474974513,-0.6759999990463257 C-0.0010000000474974513,-0.6759999990463257 0.7440000176429749,0 0.7440000176429749,0z"></path></g><g opacity="1" transform="matrix(1,0,0,1,187.61099243164062,93.00599670410156)"><path fill="rgb(71,77,87)" fill-opacity="1" d=" M0.7440000176429749,0 C0.7440000176429749,0 0,0.7440000176429749 0,0.7440000176429749 C0,0.7440000176429749 -0.7440000176429749,0 -0.7440000176429749,0 C-0.7440000176429749,0 0,-0.7440000176429749 0,-0.7440000176429749 C0,-0.7440000176429749 0.7440000176429749,0 0.7440000176429749,0z"></path></g><g opacity="1" transform="matrix(1,0,0,1,180.7790069580078,86.10600280761719)"><path fill="rgb(174,180,188)" fill-opacity="1" d=" M0.6759999990463257,0 C0.6759999990463257,0 0.0010000000474974513,0.7440000176429749 0.0010000000474974513,0.7440000176429749 C0.0010000000474974513,0.7440000176429749 -0.6759999990463257,0 -0.6759999990463257,0 C-0.6759999990463257,0 0.0010000000474974513,-0.7440000176429749 0.0010000000474974513,-0.7440000176429749 C0.0010000000474974513,-0.7440000176429749 0.6759999990463257,0 0.6759999990463257,0z"></path></g><g opacity="1" transform="matrix(1,0,0,1,194.3769989013672,86.10600280761719)"><path fill="rgb(71,77,87)" fill-opacity="1" d=" M1.284999966621399,0 C1.284999966621399,0 0,1.284999966621399 0,1.284999966621399 C0,1.284999966621399 -1.284999966621399,0 -1.284999966621399,0 C-1.284999966621399,0 0,-1.284999966621399 0,-1.284999966621399 C0,-1.284999966621399 1.284999966621399,0 1.284999966621399,0z"></path></g><g opacity="1" transform="matrix(1,0,0,1,187.61099243164062,72.44100189208984)"><path fill="rgb(71,77,87)" fill-opacity="1" d=" M1.284999966621399,0 C1.284999966621399,0 0.0010000000474974513,1.284999966621399 0.0010000000474974513,1.284999966621399 C0.0010000000474974513,1.284999966621399 -1.284999966621399,0 -1.284999966621399,0 C-1.284999966621399,0 0.0010000000474974513,-1.284999966621399 0.0010000000474974513,-1.284999966621399 C0.0010000000474974513,-1.284999966621399 1.284999966621399,0 1.284999966621399,0z"></path></g><g opacity="1" transform="matrix(1,0,0,1,180.7790069580078,65.6760025024414)"><path fill="rgb(118,128,143)" fill-opacity="1" d=" M1.2170000076293945,0 C1.2170000076293945,0 0.0010000000474974513,1.284999966621399 0.0010000000474974513,1.284999966621399 C0.0010000000474974513,1.284999966621399 -1.2170000076293945,0 -1.2170000076293945,0 C-1.2170000076293945,0 0.0010000000474974513,-1.284999966621399 0.0010000000474974513,-1.284999966621399 C0.0010000000474974513,-1.284999966621399 1.2170000076293945,0 1.2170000076293945,0z"></path></g><g opacity="1" transform="matrix(1,0,0,1,177.3280029296875,48.62799835205078)"><path fill="rgb(118,128,143)" fill-opacity="1" d=" M1.284999966621399,0 C1.284999966621399,0 0,1.284999966621399 0,1.284999966621399 C0,1.284999966621399 -1.2860000133514404,0 -1.2860000133514404,0 C-1.2860000133514404,0 0,-1.284999966621399 0,-1.284999966621399 C0,-1.284999966621399 1.284999966621399,0 1.284999966621399,0z"></path></g><g opacity="1" transform="matrix(1,0,0,1,184.22900390625,48.62799835205078)"><path fill="rgb(146,154,165)" fill-opacity="1" d=" M1.2860000133514404,0 C1.2860000133514404,0 0.0010000000474974513,1.284999966621399 0.0010000000474974513,1.284999966621399 C0.0010000000474974513,1.284999966621399 -1.2860000133514404,0 -1.2860000133514404,0 C-1.2860000133514404,0 0.0010000000474974513,-1.284999966621399 0.0010000000474974513,-1.284999966621399 C0.0010000000474974513,-1.284999966621399 1.2860000133514404,0 1.2860000133514404,0z"></path></g><g opacity="1" transform="matrix(1,0,0,1,184.22900390625,48.62799835205078)"><path fill="rgb(118,128,143)" fill-opacity="1" d=" M1.2860000133514404,0 C1.2860000133514404,0 0.0010000000474974513,1.284999966621399 0.0010000000474974513,1.284999966621399 C0.0010000000474974513,1.284999966621399 -1.2860000133514404,0 -1.2860000133514404,0 C-1.2860000133514404,0 0.0010000000474974513,-1.284999966621399 0.0010000000474974513,-1.284999966621399 C0.0010000000474974513,-1.284999966621399 1.2860000133514404,0 1.2860000133514404,0z"></path></g><g opacity="1" transform="matrix(1,0,0,1,197.75900268554688,48.62799835205078)"><path fill="rgb(118,128,143)" fill-opacity="1" d=" M1.284999966621399,0 C1.284999966621399,0 0,1.284999966621399 0,1.284999966621399 C0,1.284999966621399 -1.284999966621399,0 -1.284999966621399,0 C-1.284999966621399,0 0,-1.284999966621399 0,-1.284999966621399 C0,-1.284999966621399 1.284999966621399,0 1.284999966621399,0z"></path></g><g opacity="1" transform="matrix(1,0,0,1,184.22900390625,41.862998962402344)"><path fill="rgb(118,128,143)" fill-opacity="1" d=" M1.2860000133514404,0 C1.2860000133514404,0 0.0010000000474974513,1.284999966621399 0.0010000000474974513,1.284999966621399 C0.0010000000474974513,1.284999966621399 -1.2860000133514404,0 -1.2860000133514404,0 C-1.2860000133514404,0 0.0010000000474974513,-1.284999966621399 0.0010000000474974513,-1.284999966621399 C0.0010000000474974513,-1.284999966621399 1.2860000133514404,0 1.2860000133514404,0z"></path></g><g opacity="1" transform="matrix(1,0,0,1,187.63299560546875,79.29499816894531)"><path fill="rgb(71,77,87)" fill-opacity="1" d=" M1.2200000286102295,0 C1.2200000286102295,0 0,1.2200000286102295 0,1.2200000286102295 C0,1.2200000286102295 -1.2200000286102295,0 -1.2200000286102295,0 C-1.2200000286102295,0 0,-1.2200000286102295 0,-1.2200000286102295 C0,-1.2200000286102295 1.2200000286102295,0 1.2200000286102295,0z"></path></g><g opacity="0.11" transform="matrix(1,0,0,1,188.6699981689453,67.88999938964844)"><path fill="url(#__lottie_element_61)" fill-opacity="1" d=" M-7.791999816894531,-29.079999923706055 C8.241999626159668,-33.375999450683594 24.729000091552734,-23.839000701904297 29.031999588012695,-7.7789998054504395 C33.334999084472656,8.281000137329102 23.826000213623047,24.784000396728516 7.791999816894531,29.079999923706055 C-8.241999626159668,33.375999450683594 -24.729000091552734,23.839000701904297 -29.031999588012695,7.7789998054504395 C-33.334999084472656,-8.281000137329102 -23.826000213623047,-24.784000396728516 -7.791999816894531,-29.079999923706055z"></path></g><g opacity="0.85" transform="matrix(1,0,0,1,188.6230010986328,67.90299987792969)"><path fill="url(#__lottie_element_62)" fill-opacity="1" d=" M21.288000106811523,21.288000106811523 C9.531000137329102,33.04499816894531 -9.531000137329102,33.04499816894531 -21.288000106811523,21.288000106811523 C-33.04499816894531,9.531000137329102 -33.04499816894531,-9.531000137329102 -21.288000106811523,-21.288000106811523 C-9.531000137329102,-33.04499816894531 9.531000137329102,-33.04499816894531 21.288000106811523,-21.288000106811523 C33.04499816894531,-9.531000137329102 33.04499816894531,9.531000137329102 21.288000106811523,21.288000106811523z"></path></g></g><g transform="matrix(1,0,0,1,271.43701171875,139.83299255371094)" opacity="0.1" style="display: block;"><g opacity="1" transform="matrix(1,0,0,1,0,0)"><path fill="rgb(73,77,83)" fill-opacity="1" d=" M0,-20.239999771118164 C11.178000450134277,-20.239999771118164 20.239999771118164,-11.178000450134277 20.239999771118164,0 C20.239999771118164,11.178000450134277 11.178000450134277,20.239999771118164 0,20.239999771118164 C-11.178000450134277,20.239999771118164 -20.239999771118164,11.178000450134277 -20.239999771118164,0 C-20.239999771118164,-11.178000450134277 -11.178000450134277,-20.239999771118164 0,-20.239999771118164z"></path></g></g><g transform="matrix(1,0,0,1,25.683000564575195,269.19000244140625)" opacity="0.1" style="display: block;"><g opacity="1" transform="matrix(1,0,0,1,0,0)"><path fill="rgb(146,154,165)" fill-opacity="1" d=" M0,-41.02299880981445 C22.6560001373291,-41.02299880981445 41.02299880981445,-22.6560001373291 41.02299880981445,0 C41.02299880981445,22.6560001373291 22.6560001373291,41.02299880981445 0,41.02299880981445 C-22.6560001373291,41.02299880981445 -41.02299880981445,22.6560001373291 -41.02299880981445,0 C-41.02299880981445,-22.6560001373291 -22.6560001373291,-41.02299880981445 0,-41.02299880981445z"></path></g></g><g transform="matrix(1,0,0,1,25.683000564575195,269.19000244140625)" opacity="0.1" style="display: block;"><g opacity="0.5" transform="matrix(1,0,0,1,0,0)"><path fill="rgb(146,154,165)" fill-opacity="1" d=" M0,-41.02299880981445 C22.6560001373291,-41.02299880981445 41.02299880981445,-22.6560001373291 41.02299880981445,0 C41.02299880981445,22.6560001373291 22.6560001373291,41.02299880981445 0,41.02299880981445 C-22.6560001373291,41.02299880981445 -41.02299880981445,22.6560001373291 -41.02299880981445,0 C-41.02299880981445,-22.6560001373291 -22.6560001373291,-41.02299880981445 0,-41.02299880981445z"></path></g><g opacity="1" transform="matrix(1,0,0,1,0,0)"><path fill="rgb(255,255,255)" fill-opacity="1" d=" M-5.302999973297119,0 C-5.302999973297119,0 0,-5.302999973297119 0,-5.302999973297119 C0,-5.302999973297119 5.302999973297119,0 5.302999973297119,0 C5.302999973297119,0 0,5.302999973297119 0,5.302999973297119 C0,5.302999973297119 -5.302999973297119,0 -5.302999973297119,0z"></path></g></g><g transform="matrix(0.999019980430603,0,0,0.999019980430603,139.46299743652344,503.4389953613281)" opacity="0.2" style="display: block;"><g opacity="1" transform="matrix(1,0,0,1,0,0)"><path fill="rgb(118,128,143)" fill-opacity="1" d=" M0,-167.9499969482422 C92.75599670410156,-167.9499969482422 167.9499969482422,-92.75599670410156 167.9499969482422,0 C167.9499969482422,92.75599670410156 92.75599670410156,167.9499969482422 0,167.9499969482422 C-92.75599670410156,167.9499969482422 -167.9499969482422,92.75599670410156 -167.9499969482422,0 C-167.9499969482422,-92.75599670410156 -92.75599670410156,-167.9499969482422 0,-167.9499969482422z"></path></g></g><g transform="matrix(1,0,0,1,0,0)" opacity="0.9" style="display: block;"><g opacity="1" transform="matrix(1,0,0,1,139.44200134277344,503.4179992675781)"><path fill="rgb(174,180,188)" fill-opacity="1" d=" M0,-130.02000427246094 C71.80799865722656,-130.02000427246094 130.02000427246094,-71.80799865722656 130.02000427246094,0 C130.02000427246094,71.80799865722656 71.80799865722656,130.02000427246094 0,130.02000427246094 C-71.80799865722656,130.02000427246094 -130.02000427246094,71.80799865722656 -130.02000427246094,0 C-130.02000427246094,-71.80799865722656 -71.80799865722656,-130.02000427246094 0,-130.02000427246094z"></path></g><g opacity="1" transform="matrix(1,0,0,1,140.33200073242188,503.1499938964844)"><path fill="url(#__lottie_element_42)" fill-opacity="1" d=" M0,-130.01699829101562 C71.80599975585938,-130.01699829101562 130.01699829101562,-71.80599975585938 130.01699829101562,0 C130.01699829101562,71.80599975585938 71.80599975585938,130.01699829101562 0,130.01699829101562 C-71.80599975585938,130.01699829101562 -130.01699829101562,71.80599975585938 -130.01699829101562,0 C-130.01699829101562,-71.80599975585938 -71.80599975585938,-130.01699829101562 0,-130.01699829101562z"></path></g><g opacity="1" transform="matrix(1,0,0,1,121.31600189208984,484.13299560546875)"><path fill="url(#__lottie_element_43)" fill-opacity="1" d=" M110.84100341796875,-72.80699920654297 C60.12799835205078,-22.0939998626709 -72.80599975585938,110.84100341796875 -72.80599975585938,110.84100341796875 C-123.51899719238281,60.12799835205078 -123.51899719238281,-22.0939998626709 -72.80599975585938,-72.80699920654297 C-22.093000411987305,-123.51899719238281 60.12799835205078,-123.51899719238281 110.84100341796875,-72.80699920654297z"></path></g><g opacity="1" transform="matrix(1,0,0,1,164.2899932861328,493.8009948730469)"><path fill="rgb(71,77,87)" fill-opacity="1" d=" M-14.899999618530273,0.0010000000474974513 C-14.899999618530273,0.0010000000474974513 -0.0010000000474974513,-14.899999618530273 -0.0010000000474974513,-14.899999618530273 C-0.0010000000474974513,-14.899999618530273 14.899999618530273,0.0010000000474974513 14.899999618530273,0.0010000000474974513 C14.899999618530273,0.0010000000474974513 -0.0010000000474974513,14.899999618530273 -0.0010000000474974513,14.899999618530273 C-0.0010000000474974513,14.899999618530273 -14.899999618530273,0.0010000000474974513 -14.899999618530273,0.0010000000474974513z"></path></g><g opacity="1" transform="matrix(1,0,0,1,193.7989959716797,493.8009948730469)"><path fill="rgb(71,77,87)" fill-opacity="1" d=" M-14.609000205993652,0.0010000000474974513 C-14.609000205993652,0.0010000000474974513 0.0010000000474974513,-14.899999618530273 0.0010000000474974513,-14.899999618530273 C0.0010000000474974513,-14.899999618530273 14.609000205993652,0.0010000000474974513 14.609000205993652,0.0010000000474974513 C14.609000205993652,0.0010000000474974513 0.0010000000474974513,14.899999618530273 0.0010000000474974513,14.899999618530273 C0.0010000000474974513,14.899999618530273 -14.609000205993652,0.0010000000474974513 -14.609000205993652,0.0010000000474974513z"></path></g><g opacity="1" transform="matrix(1,0,0,1,149.6820068359375,479.1919860839844)"><path fill="rgb(118,128,143)" fill-opacity="1" d=" M-14.899999618530273,0 C-14.899999618530273,0 0.0010000000474974513,-14.901000022888184 0.0010000000474974513,-14.901000022888184 C0.0010000000474974513,-14.901000022888184 14.899999618530273,0 14.899999618530273,0 C14.899999618530273,0 0.0010000000474974513,14.901000022888184 0.0010000000474974513,14.901000022888184 C0.0010000000474974513,14.901000022888184 -14.899999618530273,0 -14.899999618530273,0z"></path></g><g opacity="1" transform="matrix(1,0,0,1,149.6820068359375,449.6820068359375)"><path fill="rgb(118,128,143)" fill-opacity="1" d=" M-14.899999618530273,0 C-14.899999618530273,0 0.0010000000474974513,-14.607999801635742 0.0010000000474974513,-14.607999801635742 C0.0010000000474974513,-14.607999801635742 14.899999618530273,0 14.899999618530273,0 C14.899999618530273,0 0.0010000000474974513,14.607999801635742 0.0010000000474974513,14.607999801635742 C0.0010000000474974513,14.607999801635742 -14.899999618530273,0 -14.899999618530273,0z"></path></g><g opacity="1" transform="matrix(1,0,0,1,120.46399688720703,479.1919860839844)"><path fill="rgb(118,128,143)" fill-opacity="1" d=" M-14.901000022888184,0 C-14.901000022888184,0 0,-14.901000022888184 0,-14.901000022888184 C0,-14.901000022888184 14.901000022888184,0 14.901000022888184,0 C14.901000022888184,0 0,14.901000022888184 0,14.901000022888184 C0,14.901000022888184 -14.901000022888184,0 -14.901000022888184,0z"></path></g><g opacity="1" transform="matrix(1,0,0,1,149.68099975585938,420.46600341796875)"><path fill="rgb(118,128,143)" fill-opacity="1" d=" M-8.472999572753906,-0.0010000000474974513 C-8.472999572753906,-0.0010000000474974513 0,-8.180000305175781 0,-8.180000305175781 C0,-8.180000305175781 8.472999572753906,-0.0010000000474974513 8.472999572753906,-0.0010000000474974513 C8.472999572753906,-0.0010000000474974513 0,8.180000305175781 0,8.180000305175781 C0,8.180000305175781 -8.472999572753906,-0.0010000000474974513 -8.472999572753906,-0.0010000000474974513z"></path></g><g opacity="1" transform="matrix(1,0,0,1,120.1729965209961,449.6830139160156)"><path fill="rgb(118,128,143)" fill-opacity="1" d=" M-8.180000305175781,0.0010000000474974513 C-8.180000305175781,0.0010000000474974513 0.0010000000474974513,-8.180000305175781 0.0010000000474974513,-8.180000305175781 C0.0010000000474974513,-8.180000305175781 8.180000305175781,0.0010000000474974513 8.180000305175781,0.0010000000474974513 C8.180000305175781,0.0010000000474974513 0.0010000000474974513,8.180000305175781 0.0010000000474974513,8.180000305175781 C0.0010000000474974513,8.180000305175781 -8.180000305175781,0.0010000000474974513 -8.180000305175781,0.0010000000474974513z"></path></g><g opacity="1" transform="matrix(1,0,0,1,184.56900024414062,547.385009765625)"><path fill="rgb(118,128,143)" fill-opacity="1" d=" M-85.62200164794922,78.88800048828125 C-72.62300109863281,83.25499725341797 -58.70600128173828,85.62200164794922 -44.236000061035156,85.62200164794922 C27.482999801635742,85.62200164794922 85.62200164794922,27.482999801635742 85.62200164794922,-44.236000061035156 C85.62200164794922,-58.707000732421875 83.25499725341797,-72.62300109863281 78.88800048828125,-85.62200164794922 C78.88800048828125,-85.62200164794922 -85.62200164794922,78.88800048828125 -85.62200164794922,78.88800048828125z"></path></g><g opacity="1" transform="matrix(1,0,0,1,90.95500183105469,449.6820068359375)"><path fill="rgb(118,128,143)" fill-opacity="1" d=" M-14.609000205993652,0 C-14.609000205993652,0 0,-14.607999801635742 0,-14.607999801635742 C0,-14.607999801635742 14.609000205993652,0 14.609000205993652,0 C14.609000205993652,0 0,14.607999801635742 0,14.607999801635742 C0,14.607999801635742 -14.609000205993652,0 -14.609000205993652,0z"></path></g><g opacity="1" transform="matrix(1,0,0,1,193.7989959716797,464.5830078125)"><path fill="rgb(71,77,87)" fill-opacity="1" d=" M2.9210000038146973,0 C2.9210000038146973,0 0.0010000000474974513,3.2139999866485596 0.0010000000474974513,3.2139999866485596 C0.0010000000474974513,3.2139999866485596 -2.9210000038146973,0 -2.9210000038146973,0 C-2.9210000038146973,0 0.0010000000474974513,-3.2139999866485596 0.0010000000474974513,-3.2139999866485596 C0.0010000000474974513,-3.2139999866485596 2.9210000038146973,0 2.9210000038146973,0z"></path></g><g opacity="1" transform="matrix(1,0,0,1,223.3090057373047,435.0740051269531)"><path fill="rgb(71,77,87)" fill-opacity="1" d=" M0,2.921999931335449 C0,2.921999931335449 -3.2139999866485596,0 -3.2139999866485596,0 C-3.2139999866485596,0 0,-2.921999931335449 0,-2.921999931335449 C0,-2.921999931335449 3.2139999866485596,0 3.2139999866485596,0 C3.2139999866485596,0 0,2.921999931335449 0,2.921999931335449z"></path></g><g opacity="1" transform="matrix(1,0,0,1,223.3090057373047,464.5830078125)"><path fill="rgb(71,77,87)" fill-opacity="1" d=" M3.2139999866485596,0 C3.2139999866485596,0 0,3.2139999866485596 0,3.2139999866485596 C0,3.2139999866485596 -3.2139999866485596,0 -3.2139999866485596,0 C-3.2139999866485596,0 0,-3.2139999866485596 0,-3.2139999866485596 C0,-3.2139999866485596 3.2139999866485596,0 3.2139999866485596,0z"></path></g><g opacity="1" transform="matrix(1,0,0,1,91.24700164794922,479.1919860839844)"><path fill="rgb(118,128,143)" fill-opacity="1" d=" M3.2139999866485596,0 C3.2139999866485596,0 0,3.2139999866485596 0,3.2139999866485596 C0,3.2139999866485596 -3.2139999866485596,0 -3.2139999866485596,0 C-3.2139999866485596,0 0,-3.2139999866485596 0,-3.2139999866485596 C0,-3.2139999866485596 3.2139999866485596,0 3.2139999866485596,0z"></path></g><g opacity="1" transform="matrix(1,0,0,1,61.44499969482422,449.6820068359375)"><path fill="rgb(174,180,188)" fill-opacity="1" d=" M3.2139999866485596,0.0010000000474974513 C3.2139999866485596,0.0010000000474974513 0,2.921999931335449 0,2.921999931335449 C0,2.921999931335449 -3.2139999866485596,0.0010000000474974513 -3.2139999866485596,0.0010000000474974513 C-3.2139999866485596,0.0010000000474974513 0,-2.921999931335449 0,-2.921999931335449 C0,-2.921999931335449 3.2139999866485596,0.0010000000474974513 3.2139999866485596,0.0010000000474974513z"></path></g><g opacity="1" transform="matrix(1,0,0,1,149.6820068359375,390.95599365234375)"><path fill="rgb(118,128,143)" fill-opacity="1" d=" M3.2139999866485596,0 C3.2139999866485596,0 0,3.2139999866485596 0,3.2139999866485596 C0,3.2139999866485596 -3.2139999866485596,0 -3.2139999866485596,0 C-3.2139999866485596,0 0,-3.2139999866485596 0,-3.2139999866485596 C0,-3.2139999866485596 3.2139999866485596,0 3.2139999866485596,0z"></path></g><g opacity="1" transform="matrix(1,0,0,1,164.2899932861328,402.64300537109375)"><path fill="rgb(118,128,143)" fill-opacity="1" d=" M3.2139999866485596,0 C3.2139999866485596,0 0,3.2139999866485596 0,3.2139999866485596 C0,3.2139999866485596 -3.2139999866485596,0 -3.2139999866485596,0 C-3.2139999866485596,0 0,-3.2139999866485596 0,-3.2139999866485596 C0,-3.2139999866485596 3.2139999866485596,0 3.2139999866485596,0z"></path></g><g opacity="1" transform="matrix(1,0,0,1,211.6219940185547,475.9779968261719)"><path fill="rgb(174,180,188)" fill-opacity="1" d=" M3.2139999866485596,0 C3.2139999866485596,0 0,2.921999931335449 0,2.921999931335449 C0,2.921999931335449 -3.2139999866485596,0 -3.2139999866485596,0 C-3.2139999866485596,0 0,-2.921999931335449 0,-2.921999931335449 C0,-2.921999931335449 3.2139999866485596,0 3.2139999866485596,0z"></path></g><g opacity="1" transform="matrix(1,0,0,1,211.6219940185547,449.6820068359375)"><path fill="rgb(174,180,188)" fill-opacity="1" d=" M3.2139999866485596,0.0010000000474974513 C3.2139999866485596,0.0010000000474974513 0,2.921999931335449 0,2.921999931335449 C0,2.921999931335449 -3.2139999866485596,0.0010000000474974513 -3.2139999866485596,0.0010000000474974513 C-3.2139999866485596,0.0010000000474974513 0,-2.921999931335449 0,-2.921999931335449 C0,-2.921999931335449 3.2139999866485596,0.0010000000474974513 3.2139999866485596,0.0010000000474974513z"></path></g><g opacity="1" transform="matrix(1,0,0,1,234.7030029296875,449.6820068359375)"><path fill="rgb(174,180,188)" fill-opacity="1" d=" M2.921999931335449,0.0010000000474974513 C2.921999931335449,0.0010000000474974513 0,2.921999931335449 0,2.921999931335449 C0,2.921999931335449 -2.9210000038146973,0.0010000000474974513 -2.9210000038146973,0.0010000000474974513 C-2.9210000038146973,0.0010000000474974513 0,-2.921999931335449 0,-2.921999931335449 C0,-2.921999931335449 2.921999931335449,0.0010000000474974513 2.921999931335449,0.0010000000474974513z"></path></g><g opacity="1" transform="matrix(1,0,0,1,164.2899932861328,464.5830078125)"><path fill="rgb(174,180,188)" fill-opacity="1" d=" M3.2139999866485596,0 C3.2139999866485596,0 0,3.2139999866485596 0,3.2139999866485596 C0,3.2139999866485596 -3.2139999866485596,0 -3.2139999866485596,0 C-3.2139999866485596,0 0,-3.2139999866485596 0,-3.2139999866485596 C0,-3.2139999866485596 3.2139999866485596,0 3.2139999866485596,0z"></path></g><g opacity="1" transform="matrix(1,0,0,1,164.2899932861328,435.0740051269531)"><path fill="rgb(174,180,188)" fill-opacity="1" d=" M3.2139999866485596,0 C3.2139999866485596,0 0,2.921999931335449 0,2.921999931335449 C0,2.921999931335449 -3.2139999866485596,0 -3.2139999866485596,0 C-3.2139999866485596,0 0,-2.921999931335449 0,-2.921999931335449 C0,-2.921999931335449 3.2139999866485596,0 3.2139999866485596,0z"></path></g><g opacity="1" transform="matrix(1,0,0,1,90.66300201416016,420.17401123046875)"><path fill="rgb(118,128,143)" fill-opacity="1" d=" M5.551000118255615,-0.0010000000474974513 C5.551000118255615,-0.0010000000474974513 0,5.551000118255615 0,5.551000118255615 C0,5.551000118255615 -5.551000118255615,-0.0010000000474974513 -5.551000118255615,-0.0010000000474974513 C-5.551000118255615,-0.0010000000474974513 0,-5.551000118255615 0,-5.551000118255615 C0,-5.551000118255615 5.551000118255615,-0.0010000000474974513 5.551000118255615,-0.0010000000474974513z"></path></g><g opacity="1" transform="matrix(1,0,0,1,120.46499633789062,420.17401123046875)"><path fill="rgb(146,154,165)" fill-opacity="1" d=" M5.551000118255615,-0.0010000000474974513 C5.551000118255615,-0.0010000000474974513 -0.0010000000474974513,5.551000118255615 -0.0010000000474974513,5.551000118255615 C-0.0010000000474974513,5.551000118255615 -5.551000118255615,-0.0010000000474974513 -5.551000118255615,-0.0010000000474974513 C-5.551000118255615,-0.0010000000474974513 -0.0010000000474974513,-5.551000118255615 -0.0010000000474974513,-5.551000118255615 C-0.0010000000474974513,-5.551000118255615 5.551000118255615,-0.0010000000474974513 5.551000118255615,-0.0010000000474974513z"></path></g><g opacity="1" transform="matrix(1,0,0,1,120.46499633789062,420.17401123046875)"><path fill="rgb(118,128,143)" fill-opacity="1" d=" M5.551000118255615,-0.0010000000474974513 C5.551000118255615,-0.0010000000474974513 -0.0010000000474974513,5.551000118255615 -0.0010000000474974513,5.551000118255615 C-0.0010000000474974513,5.551000118255615 -5.551000118255615,-0.0010000000474974513 -5.551000118255615,-0.0010000000474974513 C-5.551000118255615,-0.0010000000474974513 -0.0010000000474974513,-5.551000118255615 -0.0010000000474974513,-5.551000118255615 C-0.0010000000474974513,-5.551000118255615 5.551000118255615,-0.0010000000474974513 5.551000118255615,-0.0010000000474974513z"></path></g><g opacity="1" transform="matrix(1,0,0,1,178.8990020751953,420.17401123046875)"><path fill="rgb(118,128,143)" fill-opacity="1" d=" M5.551000118255615,-0.0010000000474974513 C5.551000118255615,-0.0010000000474974513 0,5.551000118255615 0,5.551000118255615 C0,5.551000118255615 -5.551000118255615,-0.0010000000474974513 -5.551000118255615,-0.0010000000474974513 C-5.551000118255615,-0.0010000000474974513 0,-5.551000118255615 0,-5.551000118255615 C0,-5.551000118255615 5.551000118255615,-0.0010000000474974513 5.551000118255615,-0.0010000000474974513z"></path></g><g opacity="1" transform="matrix(1,0,0,1,120.46499633789062,390.95599365234375)"><path fill="rgb(118,128,143)" fill-opacity="1" d=" M5.551000118255615,0 C5.551000118255615,0 -0.0010000000474974513,5.551000118255615 -0.0010000000474974513,5.551000118255615 C-0.0010000000474974513,5.551000118255615 -5.551000118255615,0 -5.551000118255615,0 C-5.551000118255615,0 -0.0010000000474974513,-5.551000118255615 -0.0010000000474974513,-5.551000118255615 C-0.0010000000474974513,-5.551000118255615 5.551000118255615,0 5.551000118255615,0z"></path></g><g opacity="0.2" transform="matrix(1,0,0,1,140.33200073242188,503.1499938964844)"><path fill="rgb(230,232,234)" fill-opacity="1" d=" M0,-130.01699829101562 C71.80599975585938,-130.01699829101562 130.01699829101562,-71.80599975585938 130.01699829101562,0 C130.01699829101562,71.80599975585938 71.80599975585938,130.01699829101562 0,130.01699829101562 C-71.80599975585938,130.01699829101562 -130.01699829101562,71.80599975585938 -130.01699829101562,0 C-130.01699829101562,-71.80599975585938 -71.80599975585938,-130.01699829101562 0,-130.01699829101562z"></path></g></g><g transform="matrix(0.9999998211860657,0.0005862544057890773,-0.0005862544057890773,0.9999998211860657,130.4552764892578,211.06594848632812)" opacity="1" style="display: block;"><g opacity="1" transform="matrix(1,0,0,1,0,0)"><g opacity="0.6" transform="matrix(0.949999988079071,0,0,0.949999988079071,151.10000610351562,118.5)"><path fill="url(#__lottie_element_27)" fill-opacity="1" d=" M-69.27899932861328,-84.80899810791016 C-80.31999969482422,-84.80899810791016 -90.90699768066406,-89.0780029296875 -98.71499633789062,-96.6780014038086 C-98.71499633789062,-96.6780014038086 98.71600341796875,96.6780014038086 98.71600341796875,96.6780014038086 C98.71600341796875,96.6780014038086 81.06500244140625,30.805999755859375 81.06500244140625,30.805999755859375 C81.06500244140625,30.805999755859375 -40.49599838256836,-84.80899810791016 -40.49599838256836,-84.80899810791016 C-40.49599838256836,-84.80899810791016 -69.27899932861328,-84.80899810791016 -69.27899932861328,-84.80899810791016z"></path></g><g opacity="1" transform="matrix(1,0,0,1,0,-3.200000047683716)"><g opacity="1" transform="matrix(0.9964092969894409,0.0007728708442300558,-0.016682196408510208,1.003590703010559,0,0)"><g opacity="1" transform="matrix(1,0,0,1,76.5,26.100000381469727)"><path fill="rgb(248,211,58)" fill-opacity="1" d=" M43.68000030517578,20.506000518798828 C43.68000030517578,20.506000518798828 14.564000129699707,-8.609999656677246 14.564000129699707,-8.609999656677246 C6.756999969482422,-16.209999084472656 -3.8310000896453857,-20.479999542236328 -14.871999740600586,-20.479999542236328 C-14.871999740600586,-20.479999542236328 -43.68000030517578,-20.506000518798828 -43.68000030517578,-20.506000518798828 C-43.68000030517578,-20.506000518798828 -14.538000106811523,8.63599967956543 -14.538000106811523,8.63599967956543 C-6.730999946594238,16.236000061035156 3.8570001125335693,20.506000518798828 14.89799976348877,20.506000518798828 C14.89799976348877,20.506000518798828 43.68000030517578,20.506000518798828 43.68000030517578,20.506000518798828z"></path></g><g opacity="0.6" transform="matrix(1,0,0,1,75.5,25.600000381469727)"><path fill="url(#__lottie_element_28)" fill-opacity="1" d=" M43.68000030517578,20.506000518798828 C43.68000030517578,20.506000518798828 14.564000129699707,-8.609999656677246 14.564000129699707,-8.609999656677246 C6.756999969482422,-16.209999084472656 -3.8310000896453857,-20.479999542236328 -14.871999740600586,-20.479999542236328 C-14.871999740600586,-20.479999542236328 -43.68000030517578,-20.506000518798828 -43.68000030517578,-20.506000518798828 C-43.68000030517578,-20.506000518798828 -14.538000106811523,8.63599967956543 -14.538000106811523,8.63599967956543 C-6.730999946594238,16.236000061035156 3.8570001125335693,20.506000518798828 14.89799976348877,20.506000518798828 C14.89799976348877,20.506000518798828 43.68000030517578,20.506000518798828 43.68000030517578,20.506000518798828z"></path></g></g><g opacity="1" transform="matrix(1.0164085626602173,0.02342875674366951,-0.011491998098790646,0.9835913181304932,0,0)"><g opacity="1" transform="matrix(1,0,0,1,65.90899658203125,20.200000762939453)"><path fill="rgb(229,103,0)" fill-opacity="1" d=" M-25.56599998474121,-11.984000205993652 C-25.56599998474121,-11.984000205993652 -8.52400016784668,5.0320000648498535 -8.52400016784668,5.0320000648498535 C-3.9549999237060547,9.472999572753906 2.243000030517578,11.968999862670898 8.704999923706055,11.968999862670898 C8.704999923706055,11.968999862670898 25.56599998474121,11.984000205993652 25.56599998474121,11.984000205993652 C25.56599998474121,11.984000205993652 8.510000228881836,-5.047999858856201 8.510000228881836,-5.047999858856201 C3.940000057220459,-9.48900032043457 -2.256999969482422,-11.984000205993652 -8.720000267028809,-11.984000205993652 C-8.720000267028809,-11.984000205993652 -25.56599998474121,-11.984000205993652 -25.56599998474121,-11.984000205993652z"></path></g><g opacity="0.6" transform="matrix(1,0,0,1,65.66000366210938,20.100000381469727)"><path fill="url(#__lottie_element_29)" fill-opacity="1" d=" M-25.56599998474121,-11.984000205993652 C-25.56599998474121,-11.984000205993652 -8.52400016784668,5.0320000648498535 -8.52400016784668,5.0320000648498535 C-3.9549999237060547,9.473999977111816 2.243000030517578,11.968999862670898 8.704999923706055,11.968999862670898 C8.704999923706055,11.968999862670898 25.56599998474121,11.984000205993652 25.56599998474121,11.984000205993652 C25.56599998474121,11.984000205993652 8.510000228881836,-5.046999931335449 8.510000228881836,-5.046999931335449 C3.940000057220459,-9.48900032043457 -2.256999969482422,-11.984000205993652 -8.720000267028809,-11.984000205993652 C-8.720000267028809,-11.984000205993652 -25.56599998474121,-11.984000205993652 -25.56599998474121,-11.984000205993652z"></path></g></g></g><g opacity="1" transform="matrix(1,0,0,1,0,0)"><g opacity="1" transform="matrix(1,0,0,1,43.29999923706055,2.5)"><path fill="rgb(94,102,115)" fill-opacity="1" d=" M11.447999954223633,-1.680999994277954 C11.447999954223633,-1.680999994277954 1.7050000429153442,-11.423999786376953 1.7050000429153442,-11.423999786376953 C1.7050000429153442,-11.423999786376953 -11.447999954223633,1.6299999952316284 -11.447999954223633,1.6299999952316284 C-11.447999954223633,1.6299999952316284 -1.656000018119812,11.42300033569336 -1.656000018119812,11.42300033569336 C-1.656000018119812,11.42300033569336 11.447999954223633,-1.680999994277954 11.447999954223633,-1.680999994277954z"></path></g><g opacity="1" transform="matrix(1,0,0,1,20.100000381469727,-13)"><path fill="rgb(240,185,11)" fill-opacity="1" d=" M10.71500015258789,25.68600082397461 C10.71500015258789,25.68600082397461 31.805999755859375,4.59499979019165 31.805999755859375,4.59499979019165 C31.805999755859375,4.59499979019165 1.524999976158142,-25.68600082397461 1.524999976158142,-25.68600082397461 C1.524999976158142,-25.68600082397461 -22.95599937438965,-25.68600082397461 -22.95599937438965,-25.68600082397461 C-22.95599937438965,-25.68600082397461 -31.805999755859375,-16.836000442504883 -31.805999755859375,-16.836000442504883 C-31.805999755859375,-16.836000442504883 10.71500015258789,25.68600082397461 10.71500015258789,25.68600082397461z"></path></g></g></g><g opacity="1" transform="matrix(0.9999999403953552,-0.0003848561318591237,0.0003848561318591237,0.9999999403953552,0,0)"><g opacity="0.6" transform="matrix(1,0,0,1,176.1999969482422,168)"><path fill="url(#__lottie_element_30)" fill-opacity="1" d=" M-82.88700103759766,-99.06700134277344 C-82.88700103759766,-99.06700134277344 -82.88899993896484,-65.17500305175781 -82.88899993896484,-65.17500305175781 C-82.88899993896484,-65.17500305175781 82.88899993896484,99.06700134277344 82.88899993896484,99.06700134277344 C82.88899993896484,99.06700134277344 70.48200225830078,52.768001556396484 70.48200225830078,52.768001556396484 C70.48200225830078,52.768001556396484 -82.88700103759766,-99.06700134277344 -82.88700103759766,-99.06700134277344z"></path></g><g opacity="1" transform="matrix(1,0,0,1,78.19999694824219,78)"><path fill="rgb(232,163,125)" fill-opacity="1" d=" M-2.6010000705718994,-12.449000358581543 C-2.6010000705718994,-12.449000358581543 12.447999954223633,2.6010000705718994 12.447999954223633,2.6010000705718994 C12.447999954223633,2.6010000705718994 2.6010000705718994,12.449000358581543 2.6010000705718994,12.449000358581543 C2.6010000705718994,12.449000358581543 -12.447999954223633,-2.6010000705718994 -12.447999954223633,-2.6010000705718994 C-12.447999954223633,-2.6010000705718994 -2.6010000705718994,-12.449000358581543 -2.6010000705718994,-12.449000358581543z"></path></g><g opacity="1" transform="matrix(1,0,0,1,86.4000015258789,86.19999694824219)"><path fill="url(#__lottie_element_31)" fill-opacity="1" d=" M7.081999778747559,-16.94499969482422 C7.081999778747559,-16.94499969482422 7.081999778747559,16.94499969482422 7.081999778747559,16.94499969482422 C7.081999778747559,16.94499969482422 -7.083000183105469,2.7799999713897705 -7.083000183105469,2.7799999713897705 C-7.083000183105469,2.7799999713897705 -7.083000183105469,-16.94499969482422 -7.083000183105469,-16.94499969482422 C-7.083000183105469,-16.94499969482422 7.081999778747559,-16.94499969482422 7.081999778747559,-16.94499969482422z"></path></g><g opacity="1" transform="matrix(1,0,0,1,46,41.70000076293945)"><path fill="rgb(94,102,115)" fill-opacity="1" d=" M-19.84600067138672,-34.1150016784668 C-19.84600067138672,-34.1150016784668 -34.14400100708008,-19.79400062561035 -34.14400100708008,-19.79400062561035 C-34.14400100708008,-19.79400062561035 19.84600067138672,34.1150016784668 19.84600067138672,34.1150016784668 C19.84600067138672,34.1150016784668 34.14400100708008,19.79400062561035 34.14400100708008,19.79400062561035 C34.14400100708008,19.79400062561035 -19.84600067138672,-34.1150016784668 -19.84600067138672,-34.1150016784668z"></path></g><g opacity="0.8" transform="matrix(1,0,0,1,51.20000076293945,46.900001525878906)"><path fill="url(#__lottie_element_32)" fill-opacity="1" d=" M-14.413000106811523,-28.722000122070312 C-14.413000106811523,-28.722000122070312 -28.722000122070312,-14.413000106811523 -28.722000122070312,-14.413000106811523 C-28.722000122070312,-14.413000106811523 14.413000106811523,28.722000122070312 14.413000106811523,28.722000122070312 C14.413000106811523,28.722000122070312 28.722000122070312,14.413000106811523 28.722000122070312,14.413000106811523 C28.722000122070312,14.413000106811523 -14.413000106811523,-28.722000122070312 -14.413000106811523,-28.722000122070312z"></path></g></g><g opacity="1" transform="matrix(0.9999070167541504,0.013634545728564262,-0.013634545728564262,0.9999070167541504,-0.19330978393554688,0.2666130065917969)"><g opacity="1" transform="matrix(1,0,0,1,-39.099998474121094,-33.79999923706055)"><path fill="rgb(229,103,0)" fill-opacity="1" d=" M-27.591999053955078,-15.543000221252441 C-27.591999053955078,-15.543000221252441 15.543000221252441,27.593000411987305 15.543000221252441,27.593000411987305 C15.543000221252441,27.593000411987305 27.591999053955078,15.543000221252441 27.591999053955078,15.543000221252441 C27.591999053955078,15.543000221252441 -15.541999816894531,-27.593000411987305 -15.541999816894531,-27.593000411987305 C-15.541999816894531,-27.593000411987305 -27.591999053955078,-15.543000221252441 -27.591999053955078,-15.543000221252441z"></path></g><g opacity="1" transform="matrix(1,0,0,1,-39,-34)"><path fill="url(#__lottie_element_33)" fill-opacity="1" d=" M-27.593000411987305,-15.543000221252441 C-27.593000411987305,-15.543000221252441 15.543000221252441,27.591999053955078 15.543000221252441,27.591999053955078 C15.543000221252441,27.591999053955078 27.593000411987305,15.543000221252441 27.593000411987305,15.543000221252441 C27.593000411987305,15.543000221252441 -15.543000221252441,-27.591999053955078 -15.543000221252441,-27.591999053955078 C-15.543000221252441,-27.591999053955078 -27.593000411987305,-15.543000221252441 -27.593000411987305,-15.543000221252441z"></path></g><g opacity="1" transform="matrix(1,0,0,1,-70.80000305175781,-67.30000305175781)"><path fill="rgb(232,163,125)" fill-opacity="1" d=" M7.456999778747559,7.455999851226807 C7.456999778747559,7.455999851226807 -7.456999778747559,7.455999851226807 -7.456999778747559,7.455999851226807 C-7.456999778747559,7.455999851226807 -7.456999778747559,-7.455999851226807 -7.456999778747559,-7.455999851226807 C-7.456999778747559,-7.455999851226807 7.456999778747559,-7.455999851226807 7.456999778747559,-7.455999851226807 C7.456999778747559,-7.455999851226807 7.456999778747559,7.455999851226807 7.456999778747559,7.455999851226807z"></path></g></g><g opacity="1" transform="matrix(1,0,0,1,0,0)"><g opacity="1" transform="matrix(1,0,0,1,-29.700000762939453,-39.29999923706055)"><g opacity="1" transform="matrix(1,0,0,1,4,-4.099999904632568)"><path fill="rgb(106,76,12)" fill-opacity="1" d=" M-11.95199966430664,-7.627999782562256 C-6.336999893188477,-13.244000434875488 2.5980000495910645,-13.411999702453613 8.005000114440918,-8.005000114440918 C13.411999702453613,-2.5980000495910645 13.243000030517578,6.336999893188477 7.627999782562256,11.95300006866455 C7.627999782562256,11.95300006866455 -11.95199966430664,-7.627999782562256 -11.95199966430664,-7.627999782562256z"></path></g><g opacity="1" transform="matrix(1,0,0,1,0,0)"><path fill="url(#__lottie_element_34)" fill-opacity="1" d=" M-7.894000053405762,-11.685999870300293 C-13.093000411987305,-6.486999988555908 -12.925000190734863,2.1110000610351562 -7.51800012588501,7.51800012588501 C-2.1110000610351562,12.925000190734863 6.486999988555908,13.093999862670898 11.685999870300293,7.894999980926514 C11.685999870300293,7.894999980926514 -7.894000053405762,-11.685999870300293 -7.894000053405762,-11.685999870300293z"></path><path fill="rgb(232,163,125)" fill-opacity="1" d=" M-7.894000053405762,-11.685999870300293 C-13.093000411987305,-6.486999988555908 -12.925000190734863,2.1110000610351562 -7.51800012588501,7.51800012588501 C-2.1110000610351562,12.925000190734863 6.486999988555908,13.093999862670898 11.685999870300293,7.894999980926514 C11.685999870300293,7.894999980926514 -7.894000053405762,-11.685999870300293 -7.894000053405762,-11.685999870300293z"></path></g></g><g opacity="1" transform="matrix(1,0,0,1,-8.300000190734863,-22.200000762939453)"><path fill="url(#__lottie_element_35)" fill-opacity="1" d=" M-36.040000915527344,-36.040000915527344 C-28.045000076293945,-44.0359992980957 -15.081999778747559,-44.0359992980957 -7.086999893188477,-36.040000915527344 C-7.086999893188477,-36.040000915527344 36.040000915527344,7.086999893188477 36.040000915527344,7.086999893188477 C44.0359992980957,15.081999778747559 44.0359992980957,28.045000076293945 36.040000915527344,36.040000915527344 C28.045000076293945,44.03499984741211 15.083000183105469,44.03499984741211 7.0879998207092285,36.040000915527344 C7.0879998207092285,36.040000915527344 -36.040000915527344,-7.0879998207092285 -36.040000915527344,-7.0879998207092285 C-44.03499984741211,-15.083000183105469 -44.03499984741211,-28.045000076293945 -36.040000915527344,-36.040000915527344z"></path></g></g><g opacity="1" transform="matrix(1,0,0,1,0,0)"><path fill="rgb(229,103,0)" fill-opacity="1" d=" M-21.288999557495117,4.375 C-28.076000213623047,-2.4119999408721924 -28.076000213623047,-13.416999816894531 -21.288999557495117,-20.204999923706055 C-21.288999557495117,-20.204999923706055 -11.515000343322754,-29.979000091552734 -11.515000343322754,-29.979000091552734 C-11.515000343322754,-29.979000091552734 26.3799991607666,7.914999961853027 26.3799991607666,7.914999961853027 C26.3799991607666,7.914999961853027 4.315999984741211,29.979000091552734 4.315999984741211,29.979000091552734 C4.315999984741211,29.979000091552734 -21.288999557495117,4.375 -21.288999557495117,4.375z"></path></g><g opacity="1" transform="matrix(0.9999996423721313,-0.0008552357903681695,0.0008552357903681695,0.9999996423721313,-0.46433258056640625,0.9089260101318359)"><g opacity="0.6" transform="matrix(1,0,0,1,116.19999694824219,153)"><path fill="url(#__lottie_element_36)" fill-opacity="1" d=" M-87.99600219726562,-98.16899871826172 C-87.99600219726562,-98.16899871826172 -87.90899658203125,-64.7509994506836 -87.90899658203125,-64.7509994506836 C-87.90899658203125,-64.7509994506836 75.28800201416016,98.16899871826172 75.28800201416016,98.16899871826172 C75.28800201416016,98.16899871826172 87.99600219726562,76.98400115966797 87.99600219726562,76.98400115966797 C87.99600219726562,76.98400115966797 -87.99600219726562,-98.16899871826172 -87.99600219726562,-98.16899871826172z"></path></g><g opacity="1" transform="matrix(1,0,0,1,21.299999237060547,71.80000305175781)"><path fill="url(#__lottie_element_37)" fill-opacity="1" d=" M7.081999778747559,-16.84600067138672 C7.081999778747559,-16.84600067138672 7.081999778747559,2.880000114440918 7.081999778747559,2.880000114440918 C7.081999778747559,2.880000114440918 7.081999778747559,16.84600067138672 7.081999778747559,16.84600067138672 C7.081999778747559,16.84600067138672 -7.081999778747559,2.880000114440918 -7.081999778747559,2.880000114440918 C-7.081999778747559,2.880000114440918 -7.081999778747559,-16.84600067138672 -7.081999778747559,-16.84600067138672 C-7.081999778747559,-16.84600067138672 7.081999778747559,-16.84600067138672 7.081999778747559,-16.84600067138672z"></path></g><g opacity="1" transform="matrix(1,0,0,1,6.599999904632568,61.79999923706055)"><path fill="rgb(232,163,125)" fill-opacity="1" d=" M7.895999908447266,-6.875999927520752 C7.895999908447266,-6.875999927520752 7.895999908447266,12.819000244140625 7.895999908447266,12.819000244140625 C7.895999908447266,12.819000244140625 -7.895999908447266,-2.9709999561309814 -7.895999908447266,-2.9709999561309814 C-7.895999908447266,-2.9709999561309814 1.9529999494552612,-12.819000244140625 1.9529999494552612,-12.819000244140625 C1.9529999494552612,-12.819000244140625 7.895999908447266,-6.875999927520752 7.895999908447266,-6.875999927520752z"></path></g><g opacity="1" transform="matrix(1,0,0,1,4,43.099998474121094)"><path fill="rgb(94,102,115)" fill-opacity="1" d=" M-16.648000717163086,-25.201000213623047 C-30.881000518798828,-25.201000213623047 -38.00899887084961,-7.992000102996826 -27.94499969482422,2.072000026702881 C-27.94499969482422,2.072000026702881 -4.807000160217285,25.208999633789062 -4.807000160217285,25.208999633789062 C-4.807000160217285,25.208999633789062 9.501999855041504,10.899999618530273 9.501999855041504,10.899999618530273 C9.501999855041504,10.899999618530273 -6.36299991607666,-4.965000152587891 -6.36299991607666,-4.965000152587891 C-6.36299991607666,-4.965000152587891 12.420999526977539,-4.965000152587891 12.420999526977539,-4.965000152587891 C23.597999572753906,-4.965000152587891 32.65800094604492,-14.024999618530273 32.65700149536133,-25.201000213623047 C32.65700149536133,-25.201000213623047 12.428999900817871,-25.200000762939453 12.428999900817871,-25.200000762939453 C12.430000305175781,-25.201000213623047 12.430999755859375,-25.201000213623047 12.432000160217285,-25.201000213623047 C12.432999610900879,-25.201000213623047 12.434000015258789,-25.201000213623047 12.434000015258789,-25.201000213623047 C12.434000015258789,-25.201000213623047 12.434000015258789,-25.201000213623047 12.434000015258789,-25.201000213623047 C12.432999610900879,-25.201000213623047 12.430999755859375,-25.201000213623047 12.428000450134277,-25.201000213623047 C12.427000045776367,-25.201000213623047 12.425999641418457,-25.201000213623047 12.423999786376953,-25.201000213623047 C12.423999786376953,-25.20199966430664 12.425000190734863,-25.202999114990234 12.425000190734863,-25.20400047302246 C12.427000045776367,-25.20800018310547 12.428000450134277,-25.208999633789062 12.427000045776367,-25.20800018310547 C12.425999641418457,-25.207000732421875 12.423999786376953,-25.20400047302246 12.420999526977539,-25.201000213623047 C12.420999526977539,-25.201000213623047 -16.648000717163086,-25.201000213623047 -16.648000717163086,-25.201000213623047z"></path></g></g><g opacity="1" transform="matrix(0.9999991655349731,-0.0012828534236177802,0.0012828534236177802,0.9999991655349731,0.02805805206298828,-0.012224197387695312)"><g opacity="1" transform="matrix(1,0,0,1,10,-10.699999809265137)"><path fill="rgb(229,103,0)" fill-opacity="1" d=" M16.658000946044922,9.71500015258789 C27.393999099731445,-1.0199999809265137 19.791000366210938,-19.375999450683594 4.609000205993652,-19.375999450683594 C4.609000205993652,-19.375999450683594 -21.68400001525879,-19.375999450683594 -21.68400001525879,-19.375999450683594 C-21.68400001525879,-19.375999450683594 -21.68400001525879,-2.3340001106262207 -21.68400001525879,-2.3340001106262207 C-21.68400001525879,-2.3340001106262207 4.609000205993652,-2.3340001106262207 4.609000205993652,-2.3340001106262207 C4.609000205993652,-2.3340001106262207 -5.052000045776367,7.326000213623047 -5.052000045776367,7.326000213623047 C-5.052000045776367,7.326000213623047 6.998000144958496,19.375999450683594 6.998000144958496,19.375999450683594 C6.998000144958496,19.375999450683594 16.658000946044922,9.71500015258789 16.658000946044922,9.71500015258789z"></path></g><g opacity="1" transform="matrix(1,0,0,1,10.199999809265137,-10.699999809265137)"><path fill="url(#__lottie_element_38)" fill-opacity="1" d=" M16.659000396728516,9.71500015258789 C27.393999099731445,-1.0210000276565552 19.791000366210938,-19.375999450683594 4.609000205993652,-19.375999450683594 C4.609000205993652,-19.375999450683594 -21.68400001525879,-19.375999450683594 -21.68400001525879,-19.375999450683594 C-21.68400001525879,-19.375999450683594 -21.68400001525879,-2.3350000381469727 -21.68400001525879,-2.3350000381469727 C-21.68400001525879,-2.3350000381469727 4.609000205993652,-2.3350000381469727 4.609000205993652,-2.3350000381469727 C4.609000205993652,-2.3350000381469727 -1.8309999704360962,4.105000019073486 -1.8309999704360962,4.105000019073486 C-1.8309999704360962,4.105000019073486 -5.051000118255615,7.326000213623047 -5.051000118255615,7.326000213623047 C-5.051000118255615,7.326000213623047 6.999000072479248,19.375999450683594 6.999000072479248,19.375999450683594 C6.999000072479248,19.375999450683594 16.659000396728516,9.71500015258789 16.659000396728516,9.71500015258789z"></path></g><g opacity="1" transform="matrix(1,0,0,1,3.700000047683716,15.600000381469727)"><path fill="rgb(232,163,125)" fill-opacity="1" d=" M5.2729997634887695,-9.133000373840332 C5.2729997634887695,-9.133000373840332 9.133000373840332,5.2729997634887695 9.133000373840332,5.2729997634887695 C9.133000373840332,5.2729997634887695 -5.2729997634887695,9.133000373840332 -5.2729997634887695,9.133000373840332 C-5.2729997634887695,9.133000373840332 -9.133000373840332,-5.2729997634887695 -9.133000373840332,-5.2729997634887695 C-9.133000373840332,-5.2729997634887695 5.2729997634887695,-9.133000373840332 5.2729997634887695,-9.133000373840332z"></path></g></g></g><g transform="matrix(1,0,0,1,-11,8.5)" opacity="1" style="display: none;"><g opacity="1" transform="matrix(1,0,0,1,311,287)"><path fill="rgb(173,179,188)" fill-opacity="1" d=" M4,-4 C4,-4 4,4 4,4 C4,4 -4,4 -4,4 C-4,4 -4,-4 -4,-4 C-4,-4 4,-4 4,-4z"></path></g></g><g style="display: none;" transform="matrix(1,0,0,1,-31,118.5)" opacity="1"><g opacity="1" transform="matrix(1,0,0,1,306.3508605957031,282.7096252441406)"><path fill="rgb(173,179,188)" fill-opacity="1" d=" M4,-4 C4,-4 4,4 4,4 C4,4 -4,4 -4,4 C-4,4 -4,-4 -4,-4 C-4,-4 4,-4 4,-4z"></path></g></g><g style="display: none;" transform="matrix(1,0,0,1,-24,3.5)" opacity="1"><g opacity="1" transform="matrix(1,0,0,1,311,287)"><path fill="rgb(173,179,188)" fill-opacity="1" d=" M4,-4 C4,-4 4,4 4,4 C4,4 -4,4 -4,4 C-4,4 -4,-4 -4,-4 C-4,-4 4,-4 4,-4z"></path></g></g><g style="display: none;" transform="matrix(1,0,0,1,-24,103.5)" opacity="1"><g opacity="1" transform="matrix(1,0,0,1,311,287)"><path fill="rgb(173,179,188)" fill-opacity="1" d=" M4,-4 C4,-4 4,4 4,4 C4,4 -4,4 -4,4 C-4,4 -4,-4 -4,-4 C-4,-4 4,-4 4,-4z"></path></g></g><g style="display: none;" transform="matrix(1,0,0,1,-24,143.5)" opacity="1"><g opacity="1" transform="matrix(1,0,0,1,311,287)"><path fill="rgb(173,179,188)" fill-opacity="1" d=" M4,-4 C4,-4 4,4 4,4 C4,4 -4,4 -4,4 C-4,4 -4,-4 -4,-4 C-4,-4 4,-4 4,-4z"></path></g></g><g style="display: block;" transform="matrix(1,0,0,1,-24,-6.5)" opacity="1"><g opacity="1" transform="matrix(1,0,0,1,210.1156463623047,193.90093994140625)"><path fill="rgb(173,179,188)" fill-opacity="1" d=" M4,-4 C4,-4 4,4 4,4 C4,4 -4,4 -4,4 C-4,4 -4,-4 -4,-4 C-4,-4 4,-4 4,-4z"></path></g></g><g transform="matrix(1,0,0,1,140,240)" opacity="1" style="display: block;"><g opacity="1" transform="matrix(1,0,0,1,0,0)"><path fill="rgb(59,61,63)" fill-opacity="1" d=" M494,-65"></path></g></g></g></svg>