<svg xmlns="http://www.w3.org/2000/svg" viewBox="0 0 96 96" fill="none" class="css-xfrea7">
    <path fill-rule="evenodd" clip-rule="evenodd" d="M12.001 68.043l36 23.957V8h-36v60.043z"
        fill="url(#security-low-light_svg__paint0_linear_22059_28253)"></path>
    <path fill-rule="evenodd" clip-rule="evenodd" d="M48.001 8v84l36-24V8h-36z"
        fill="url(#security-low-light_svg__paint1_linear_22059_28253)"></path>
    <path d="M74 64.667L48 82 22 64.667V18h52v46.667z" fill="#76808F"></path>
    <circle r="15" transform="matrix(1 0 0 -1 73 73)" fill="url(#security-low-light_svg__paint2_linear_22059_28253)">
    </circle>
    <path
        d="M70.88 73.003l-5.304-5.304 2.122-2.12L73 70.88l5.303-5.303 2.121 2.121-5.303 5.304 5.303 5.303-2.12 2.121L73 75.124l-5.303 5.303-2.122-2.12 5.303-5.304z"
        fill="#fff"></path>
    <path d="M34 46l14 14 14-14-14-14-14 14z" fill="#E6E8EA"></path>
    <defs>
        <linearGradient id="security-low-light_svg__paint0_linear_22059_28253" x1="30.001" y1="8" x2="30.001" y2="92"
            gradientUnits="userSpaceOnUse">
            <stop stop-color="#929AA5"></stop>
            <stop offset="1" stop-color="#76808F"></stop>
        </linearGradient>
        <linearGradient id="security-low-light_svg__paint1_linear_22059_28253" x1="66.001" y1="92" x2="66.001" y2="8"
            gradientUnits="userSpaceOnUse">
            <stop stop-color="#76808F"></stop>
            <stop offset="1" stop-color="#929AA5"></stop>
        </linearGradient>
        <linearGradient id="security-low-light_svg__paint2_linear_22059_28253" x1="15" y1="30" x2="15" y2="0"
            gradientUnits="userSpaceOnUse">
            <stop stop-color="#F84960"></stop>
            <stop offset="1" stop-color="#D9304E"></stop>
        </linearGradient>
    </defs>
</svg>