<svg xmlns="http://www.w3.org/2000/svg" viewBox="0 0 96 96" fill="none" class="css-uha2e3"><path fill="#E6E8EA" d="M12 84h72V42H12z"></path><path d="M26 57h44L48 79 26 57z" fill="url(#deposit-light_svg__paint0_linear)"></path><circle r="22" transform="matrix(1 0 0 -1 48 30)" fill="#F8D33A"></circle><circle r="15.053" transform="matrix(1 0 0 -1 48 30)" fill="url(#deposit-light_svg__paint1_linear)"></circle><path d="M39.895 30L48 38.105 56.105 30 48 21.895 39.895 30z" fill="#F0B90B"></path><path d="M80 30l2-2 2 2-2 2-2-2z" fill="#E6E8EA"></path><path d="M19 49l3-3 3 3-3 3-3-3zM65 75.5l1.5-1.5 1.5 1.5-1.5 1.5-1.5-1.5z" fill="#fff"></path><defs><linearGradient id="deposit-light_svg__paint0_linear" x1="48" y1="57" x2="48" y2="79" gradientUnits="userSpaceOnUse"><stop stop-color="#929AA5"></stop><stop offset="1" stop-color="#76808F"></stop></linearGradient><linearGradient id="deposit-light_svg__paint1_linear" x1="15.053" y1="0" x2="15.053" y2="30.105" gradientUnits="userSpaceOnUse"><stop stop-color="#F0B90B"></stop><stop offset="1" stop-color="#F8D33A"></stop></linearGradient></defs></svg>