<svg width="64" height="64" viewBox="0 0 64 64" fill="none" xmlns="http://www.w3.org/2000/svg">
<mask id="mask0" mask-type="alpha" maskUnits="userSpaceOnUse" x="0" y="0" width="64" height="64">
<rect width="64" height="64" rx="32" fill="#C4C4C4"/>
</mask>
<g mask="url(#mask0)">
<circle cx="32" cy="32" r="32" fill="#E6E8EA"/>
</g>
<path d="M20 37.6001H36.8H27.6H20Z" fill="url(#paint0_linear)"/>
<path d="M28.8 45.6001H20V37.6001H27.6H36.8L39.2 40.0001L33.2 46.0001L28.8 41.6001V45.6001Z" fill="url(#paint1_linear)"/>
<path d="M20.1641 26.7102L20.1445 32.725L14.5789 32.725L14.5789 26.7102L20.1641 26.7102Z" fill="url(#paint2_linear)"/>
<path d="M39.2 18.3999L20 18.3999V37.5999L39.2 37.5999V18.3999Z" fill="url(#paint3_linear)"/>
<path d="M35.1587 6.6394C37.3455 8.82634 37.3455 12.3721 35.1587 14.559C32.9719 16.746 29.4264 16.746 27.2396 14.559L35.1587 6.6394Z" fill="#CB8C54"/>
<path d="M37.1996 4.59939L36.5526 3.95238L34.4597 6.04528C32.2718 4.47463 29.2063 4.67267 27.2397 6.63939C25.0529 8.82634 25.0529 12.3721 27.2397 14.559L37.1996 4.59939Z" fill="#0B0E11"/>
<path fill-rule="evenodd" clip-rule="evenodd" d="M35.2004 43.9195L48.4004 57.2L52.4004 53.2L39.1602 39.9597L35.2004 43.9195Z" fill="#CB8C54"/>
<path fill-rule="evenodd" clip-rule="evenodd" d="M54.6379 63.9999L48.1191 57.4813L52.4005 53.2L54.6378 55.4372L63.2007 55.4372L54.6379 63.9999Z" fill="#14151A"/>
<path fill-rule="evenodd" clip-rule="evenodd" d="M48.1221 57.4798L46.1192 55.4813L50.4006 51.2L52.4035 53.1984L48.1221 57.4798Z" fill="white"/>
<path d="M33.1992 43.6001L28.3992 38.8001V22.8001L33.1992 27.6001V43.6001Z" fill="url(#paint4_linear)"/>
<path d="M42.8008 43.6001L38.0008 38.8001V22.8001L42.8008 27.6001V43.6001Z" fill="url(#paint5_linear)"/>
<path d="M42.8008 43.6001L47.6008 38.8001V22.8001L42.8008 27.6001V43.6001Z" fill="#F0B90B"/>
<path fill-rule="evenodd" clip-rule="evenodd" d="M20 18.3999L14.4 23.9999L18.5926 28.1924L20 26.785V18.3999Z" fill="#AEB4BC"/>
<path d="M33.9992 18.3999L37.1992 18.3999L37.1992 24.7999L33.9992 27.9999L33.9992 18.3999Z" fill="url(#paint6_linear)"/>
<path d="M22.8008 32.8H17.2365C15.0092 32.8 13.8938 30.1072 15.4687 28.5323L17.201 26.8" stroke="#CB8C54" stroke-width="5"/>
<path d="M27.2004 36L24.0004 32.8L27.2004 29.6L30.4004 32.8L27.2004 36Z" fill="#CB8C54"/>
<path d="M48.8 36L45.6 32.8L48.8 29.6L52 32.8L48.8 36Z" fill="#CB8C54"/>
<path d="M19.9992 18.3999L19.9992 29.5999C21.7665 29.5999 23.1992 28.2674 23.1992 26.6238L23.1992 18.3999L19.9992 18.3999Z" fill="url(#paint7_linear)"/>
<path d="M33.1992 43.6001L37.9992 38.8001V22.8001L33.1992 27.6001V43.6001Z" fill="#F0B90B"/>
<path fill-rule="evenodd" clip-rule="evenodd" d="M15.8994 59.6607C14.256 58.702 12.7058 57.6011 11.2656 56.3749L19.9768 47.6637C19.9918 47.6487 20.0002 47.6284 20.0002 47.6072V45.6001H25.6002V47.6072C25.6002 49.1136 25.0018 50.5583 23.9366 51.6235L15.8994 59.6607Z" fill="#CB8C54"/>
<defs>
<linearGradient id="paint0_linear" x1="39.2" y1="46.0001" x2="20" y2="46.0001" gradientUnits="userSpaceOnUse">
<stop stop-color="#0B0E11"/>
<stop offset="1" stop-color="#474D57"/>
</linearGradient>
<linearGradient id="paint1_linear" x1="39.2" y1="46.0001" x2="20" y2="46.0001" gradientUnits="userSpaceOnUse">
<stop stop-color="#0B0E11"/>
<stop offset="1" stop-color="#474D57"/>
</linearGradient>
<linearGradient id="paint2_linear" x1="20.1837" y1="28.1306" x2="14.5789" y2="28.1306" gradientUnits="userSpaceOnUse">
<stop stop-color="#0B0E11" stop-opacity="0.1"/>
<stop offset="1" stop-color="#0B0E11" stop-opacity="0"/>
</linearGradient>
<linearGradient id="paint3_linear" x1="25.4154" y1="37.5999" x2="40.4432" y2="23.3427" gradientUnits="userSpaceOnUse">
<stop stop-color="#AEB4BC"/>
<stop offset="1" stop-color="#929AA5"/>
</linearGradient>
<linearGradient id="paint4_linear" x1="30.7992" y1="43.6001" x2="30.7992" y2="22.8001" gradientUnits="userSpaceOnUse">
<stop stop-color="#F0B90B"/>
<stop offset="1" stop-color="#F8D33A"/>
</linearGradient>
<linearGradient id="paint5_linear" x1="40.4008" y1="43.6001" x2="40.4008" y2="22.8001" gradientUnits="userSpaceOnUse">
<stop stop-color="#F0B90B"/>
<stop offset="1" stop-color="#F8D33A"/>
</linearGradient>
<linearGradient id="paint6_linear" x1="33.9992" y1="27.9999" x2="33.9992" y2="18.3999" gradientUnits="userSpaceOnUse">
<stop stop-color="#474D57"/>
<stop offset="1" stop-color="#0B0E11"/>
</linearGradient>
<linearGradient id="paint7_linear" x1="19.9992" y1="29.5999" x2="19.9992" y2="18.3999" gradientUnits="userSpaceOnUse">
<stop stop-color="#474D57"/>
<stop offset="1" stop-color="#0B0E11"/>
</linearGradient>
</defs>
</svg>
