<svg width="192" height="192" viewBox="0 0 192 192" fill="none" xmlns="http://www.w3.org/2000/svg">
<g style="mix-blend-mode:soft-light" opacity="0.6">
<path d="M127.351 65.7559L117.772 75.3346C116.043 77.0637 113.24 77.0637 111.511 75.3346L102.75 66.5737" stroke="url(#paint0_linear_8763_258595)" stroke-width="8.85505"/>
</g>
<path d="M151.367 69.8701L164.108 82.6111L176.85 95.3533" stroke="url(#paint1_linear_8763_258595)" stroke-opacity="0.12" stroke-width="11.0688"/>
<mask id="mask0_8763_258595" style="mask-type:alpha" maskUnits="userSpaceOnUse" x="0" y="0" width="192" height="192">
<rect width="192" height="192" fill="#D9D9D9"/>
</mask>
<g mask="url(#mask0_8763_258595)">
<path d="M93.8483 88.9648V67.6278H12.6685C6.77646 67.6278 2 72.4042 2 78.2963C2 84.1884 6.77647 88.9648 12.6685 88.9648L93.8483 88.9648Z" fill="#2B2F36"/>
<g style="mix-blend-mode:soft-light" opacity="0.6">
<path d="M93.8483 88.9648V67.6278H12.6685C6.77646 67.6278 2 72.4042 2 78.2963C2 84.1884 6.77647 88.9648 12.6685 88.9648L93.8483 88.9648Z" fill="#76808F"/>
</g>
<path d="M93.2812 149.26L113.522 76.7598L114.59 77.0489L94.4279 149.26H93.2812Z" fill="#CACED3"/>
<path d="M113.516 76.7598H121.817L122.371 77.8666H113.516V76.7598Z" fill="#E6E8EA"/>
<path d="M115.828 149.26L135.523 76.8916L136.592 77.1807L116.975 149.26H115.828Z" fill="#CACED3"/>
<path d="M142.337 76.7598H121.82L141.428 149.26H142.574L123.266 77.8666H141.49L160.798 149.26H161.945L142.337 76.7598Z" fill="#E6E8EA"/>
<path d="M142.337 76.7598H121.82L141.428 149.26H142.574L123.266 77.8666H141.49L160.798 149.26H161.945L142.337 76.7598Z" fill="#CACED3"/>
<path opacity="0.6" d="M37.9766 47.2892L42.2657 43L46.5549 47.2892L42.2657 51.5783L37.9766 47.2892Z" fill="#929AA5"/>
<path d="M33.8203 58.9109L35.8957 60.9863L37.9711 58.9109L35.8957 56.8355L33.8203 58.9109Z" fill="url(#paint2_linear_8763_258595)"/>
<path d="M110.75 96.8216L113.932 100.004L117.115 96.8216L113.932 93.6393L110.75 96.8216Z" fill="url(#paint3_linear_8763_258595)"/>
<path opacity="0.6" d="M19.9844 52.9617L21.368 51.5781L22.7516 52.9617L21.368 54.3453L19.9844 52.9617Z" fill="#929AA5"/>
<path opacity="0.6" d="M94.9766 48.534L96.3602 47.1504L97.7438 48.534L96.3602 49.9176L94.9766 48.534Z" fill="#929AA5"/>
<path opacity="0.6" d="M104.664 83.4012L106.048 82.0176L107.431 83.4012L106.048 84.7848L104.664 83.4012Z" fill="#929AA5"/>
<path fill-rule="evenodd" clip-rule="evenodd" d="M124.306 120.206H102.445V119.099H124.306V120.206Z" fill="#CACED3"/>
<path fill-rule="evenodd" clip-rule="evenodd" d="M138.984 138.468H99.6901V137.361H138.984V138.468Z" fill="#CACED3"/>
<path fill-rule="evenodd" clip-rule="evenodd" d="M145.342 89.7651H125.695V88.6582H145.342V89.7651ZM148.663 101.941H129.293V100.834H148.663V101.941ZM151.984 114.116H132.613V113.01H151.984V114.116ZM155.304 126.292H135.934V125.185H155.304V126.292ZM158.625 138.468H138.978V137.361H158.625V138.468Z" fill="#E6E8EA"/>
<path fill-rule="evenodd" clip-rule="evenodd" d="M145.342 89.7651H125.695V88.6582H145.342V89.7651ZM148.663 101.941H129.293V100.834H148.663V101.941ZM151.984 114.116H132.613V113.01H151.984V114.116ZM155.304 126.292H135.934V125.185H155.304V126.292ZM158.625 138.468H138.978V137.361H158.625V138.468Z" fill="#CACED3"/>
<path d="M145.945 117.345L138.111 117.345L130.277 125.179L145.945 125.179L145.945 117.345Z" fill="#5E6673"/>
<path d="M184.046 98.3989L178.507 103.938L178.507 115.018L189.586 103.938L184.046 98.3989Z" fill="#5E6673"/>
<rect width="7.83417" height="7.83417" transform="matrix(-1.25384e-07 -1 -1 1.25384e-07 145.945 117.345)" fill="#F8D33A"/>
<rect width="7.83417" height="7.83417" transform="matrix(-0.707107 -0.707107 -0.707107 0.707107 184.047 98.4004)" fill="#F8D33A"/>
<path d="M154.984 65.9922L156.043 67.051C160.189 71.1971 160.189 77.9191 156.043 82.0652L147.477 73.4993L154.984 65.9922Z" fill="#484E58"/>
<path d="M143.595 109.786L143.595 79.4248L150.242 72.7773" stroke="#0461FC" stroke-width="11.0688"/>
<path d="M151.367 69.8701L164.108 82.6111L176.85 95.3533" stroke="#0461FC" stroke-width="11.0688"/>
<path d="M118.382 45.1006C115.581 47.901 115.581 52.4413 118.382 55.2417C121.182 58.0421 125.722 58.0421 128.523 55.2417L118.382 45.1006Z" fill="#FFBEA6"/>
<path d="M118.383 45.1003C121.183 42.2999 125.724 42.2999 128.524 45.1003C131.324 47.9007 131.324 52.4411 128.524 55.2415L118.383 45.1003Z" fill="#935A30"/>
<path fill-rule="evenodd" clip-rule="evenodd" d="M124.742 62.0939L131.777 62.0939L131.777 55.0594L132.342 54.4941C135.476 51.3602 140.557 51.3602 143.691 54.4941L155.251 66.0547L138.016 83.2897L120.781 66.0547L124.742 62.0939Z" fill="#FF7E0D"/>
<path fill-rule="evenodd" clip-rule="evenodd" d="M128.287 96.3936L141.57 145.511L140.501 145.801L127.219 96.683L128.287 96.3936Z" fill="#E6E8EA"/>
<path fill-rule="evenodd" clip-rule="evenodd" d="M128.287 96.3936L141.57 145.511L140.501 145.801L127.219 96.683L128.287 96.3936Z" fill="#CACED3"/>
<rect width="7.74817" height="7.74817" transform="matrix(1 3.7749e-08 3.7749e-08 -1 120.156 91.6953)" fill="#FFBEA6"/>
<rect x="92.4844" y="56.2979" width="7.75537" height="7.75537" fill="#FFBEA6"/>
<path d="M46.5575 67.9047C46.5575 54.1502 57.7078 42.9999 71.4624 42.9999C85.2169 42.9999 96.3672 54.1502 96.3672 67.9047C96.3672 81.6593 85.2169 92.8096 71.4624 92.8096C57.7078 92.8096 46.5575 81.6593 46.5575 67.9047Z" fill="url(#paint4_linear_8763_258595)"/>
<path d="M81.5625 67.9044L71.4659 78.001L61.3694 67.9044L71.4659 57.8079L81.5625 67.9044Z" fill="#F0B90B"/>
<circle cx="71.4624" cy="67.9047" r="21.9851" transform="rotate(180 71.4624 67.9047)" stroke="#F8D33A" stroke-width="5.83956"/>
<path d="M12.5156 78.6971L12.5156 149.261H99.6825V78.6971H12.5156Z" fill="#28D294"/>
<path d="M93.8715 88.9356L12.6573 88.9356C6.93205 88.9356 2.26011 84.4257 2.0002 78.7646L2 138.618C2 144.496 6.76474 149.261 12.6423 149.261H93.8715V88.9356Z" fill="#328DFD"/>
<g style="mix-blend-mode:soft-light" opacity="0.6">
<path fill-rule="evenodd" clip-rule="evenodd" d="M2.0007 78.4199C2.06627 84.2041 6.73497 88.8826 12.5154 88.9639L12.5154 149.26C6.70789 149.26 2 144.552 2 138.745L2 78.4199L2.0007 78.4199Z" fill="black"/>
</g>
<path d="M67.5859 134.871H93.8744V108.583H67.5859V134.871Z" fill="#2B2F36"/>
<path d="M67.5859 134.871H93.8744V108.583H67.5859V134.871Z" fill="#2B2F36"/>
<g style="mix-blend-mode:soft-light" opacity="0.6">
<path d="M67.5859 134.871H93.8744V108.583H67.5859V134.871Z" fill="url(#paint5_linear_8763_258595)"/>
</g>
<path d="M74.5 121.865L80.8646 115.5L87.2291 121.865L80.8646 128.229L74.5 121.865Z" fill="#F8D33A"/>
<path d="M71.4595 43C85.2141 43 96.3643 54.1503 96.3643 67.9048C96.3643 71.7713 95.4833 75.4319 93.911 78.6969H49.0081C47.4358 75.4319 46.5547 71.7713 46.5547 67.9048C46.5547 54.1503 57.705 43 71.4595 43Z" fill="url(#paint6_linear_8763_258595)"/>
</g>
<path d="M127.351 65.7559L117.772 75.3346C116.043 77.0637 113.24 77.0637 111.511 75.3346L102.75 66.5737L111.511 75.3346C113.24 77.0637 116.043 77.0637 117.772 75.3346L127.351 65.7559Z" stroke="#FF7E0D" stroke-width="8.85505"/>
<path d="M139.336 60.1494L139.336 70.8038C139.336 71.9781 138.869 73.1042 138.039 73.9346L129.579 82.3942" stroke="#FF7E0D" stroke-width="8.85505"/>
<defs>
<linearGradient id="paint0_linear_8763_258595" x1="107.981" y1="69.15" x2="124.861" y2="69.15" gradientUnits="userSpaceOnUse">
<stop stop-opacity="0"/>
<stop offset="1"/>
</linearGradient>
<linearGradient id="paint1_linear_8763_258595" x1="177.306" y1="96.1304" x2="156.552" y2="75.3764" gradientUnits="userSpaceOnUse">
<stop/>
<stop offset="1" stop-opacity="0"/>
</linearGradient>
<linearGradient id="paint2_linear_8763_258595" x1="35.8957" y1="60.9863" x2="35.8957" y2="56.8355" gradientUnits="userSpaceOnUse">
<stop stop-color="#F0B90B"/>
<stop offset="1" stop-color="#F8D33A"/>
</linearGradient>
<linearGradient id="paint3_linear_8763_258595" x1="113.932" y1="100.004" x2="113.932" y2="93.6393" gradientUnits="userSpaceOnUse">
<stop stop-color="#F0B90B"/>
<stop offset="1" stop-color="#F8D33A"/>
</linearGradient>
<linearGradient id="paint4_linear_8763_258595" x1="71.4624" y1="92.8096" x2="71.4624" y2="42.9999" gradientUnits="userSpaceOnUse">
<stop stop-color="#F0B90B"/>
<stop offset="1" stop-color="#F8D33A"/>
</linearGradient>
<linearGradient id="paint5_linear_8763_258595" x1="80.7302" y1="134.871" x2="80.7302" y2="108.583" gradientUnits="userSpaceOnUse">
<stop/>
<stop offset="1" stop-opacity="0"/>
</linearGradient>
<linearGradient id="paint6_linear_8763_258595" x1="71.4595" y1="83.1245" x2="71.4595" y2="64.5842" gradientUnits="userSpaceOnUse">
<stop stop-opacity="0.2"/>
<stop offset="1" stop-opacity="0"/>
</linearGradient>
</defs>
</svg>
